<svg width="21" height="20" viewBox="0 0 21 20" fill="none" xmlns="http://www.w3.org/2000/svg">
<path d="M20.5 10C20.5 15.5228 16.0228 20 10.5 20C4.97715 20 0.5 15.5228 0.5 10C0.5 4.47715 4.97715 0 10.5 0C16.0228 0 20.5 4.47715 20.5 10Z" fill="white"/>
<g clip-path="url(#clip0_3642_31609)">
<path fill-rule="evenodd" clip-rule="evenodd" d="M17.9344 10.1708C17.9344 9.63899 17.8867 9.12763 17.798 8.63672H10.7344V11.5379H14.7707C14.5969 12.4754 14.0685 13.2697 13.2741 13.8015V15.6833H15.698C17.1162 14.3776 17.9344 12.4549 17.9344 10.1708Z" fill="#4285F4"/>
<path fill-rule="evenodd" clip-rule="evenodd" d="M10.7335 17.5008C12.7585 17.5008 14.4563 16.8292 15.6972 15.6837L13.2733 13.8019C12.6017 14.2519 11.7426 14.5178 10.7335 14.5178C8.78012 14.5178 7.12671 13.1985 6.53693 11.4258H4.03125V13.369C5.26534 15.8201 7.80171 17.5008 10.7335 17.5008Z" fill="#34A853"/>
<path fill-rule="evenodd" clip-rule="evenodd" d="M6.53779 11.426C6.38779 10.976 6.30256 10.4953 6.30256 10.001C6.30256 9.50668 6.38779 9.026 6.53779 8.576V6.63281H4.0321C3.52415 7.64531 3.23438 8.79077 3.23438 10.001C3.23438 11.2112 3.52415 12.3567 4.0321 13.3692L6.53779 11.426Z" fill="#FBBC05"/>
<path fill-rule="evenodd" clip-rule="evenodd" d="M10.7335 5.48296C11.8347 5.48296 12.8233 5.86137 13.6006 6.60455L15.7517 4.45341C14.4528 3.24318 12.7551 2.5 10.7335 2.5C7.80171 2.5 5.26534 4.18068 4.03125 6.63182L6.53693 8.575C7.12671 6.80228 8.78012 5.48296 10.7335 5.48296Z" fill="#EA4335"/>
</g>
<defs>
<clipPath id="clip0_3642_31609">
<rect width="15" height="15" fill="white" transform="translate(3 2.5)"/>
</clipPath>
</defs>
</svg>
