<svg width="21" height="20" viewBox="0 0 21 20" fill="none" xmlns="http://www.w3.org/2000/svg">
<path d="M10.9304 2C6.26356 2 2.5 5.01082 2.5 8.66598C2.5 11.0385 4.06564 13.116 6.4141 14.3023L5.61924 17.271C5.60425 17.3155 5.60195 17.3633 5.61258 17.409C5.62322 17.4547 5.64637 17.4966 5.67945 17.5299C5.72769 17.5724 5.78976 17.596 5.85408 17.5961C5.90741 17.5919 5.95801 17.5708 5.9986 17.5359L9.41893 15.2296C9.92381 15.2993 10.4328 15.3355 10.9424 15.338C15.6032 15.338 19.3728 12.3272 19.3728 8.66598C19.3728 5.00479 15.5912 2 10.9304 2Z" fill="#392020"/>
</svg>
