<svg width="36" height="32" viewBox="0 0 36 32" fill="none" xmlns="http://www.w3.org/2000/svg">
<path d="M20.342 28.1359C20.7816 28.1359 21.1909 28.0449 21.494 27.9084C22.5703 27.3473 23.3282 26.5738 24.0861 24.2988C24.8591 21.9328 26.3143 20.8256 27.7088 19.7488C28.9063 18.8236 30.1492 17.8681 31.2255 15.9116C32.0288 14.4556 32.4684 12.8631 32.4684 11.4526C32.4684 7.20594 29.1337 3.86927 24.8894 3.86927C21.1538 3.86927 18.1228 6.4541 17.45 9.96918C17.295 10.7787 16.6318 11.4526 15.7947 11.4526C14.9575 11.4526 14.268 10.7812 14.3775 9.96456C15.0785 4.73497 19.4382 0.835938 24.8894 0.835938C30.8465 0.835938 35.5 5.4921 35.5 11.4526C35.5 13.3636 34.924 15.4718 33.8781 17.3676C32.4987 19.8701 30.8768 21.1289 29.5581 22.1451C28.3303 23.0854 27.4511 23.7679 26.9661 25.2543C26.0566 28.0146 24.8894 29.5616 22.8279 30.6384C22.0549 30.9873 21.206 31.1693 20.342 31.1693C17.4784 31.1693 15.08 28.3324 14.444 25.4151C14.2685 24.6096 14.9575 23.9353 15.7947 23.9353C16.6318 23.9353 17.3131 24.6162 17.5834 25.3958C18.0626 26.778 19.121 28.1359 20.342 28.1359Z" fill="current"/>
<path fill-rule="evenodd" clip-rule="evenodd" d="M21.4417 11.7142C21.447 9.42942 23.0159 7.83957 24.8339 7.83957C26.7037 7.83957 28.3811 9.48804 28.3811 11.7259C28.3811 12.3706 28.9122 12.8932 29.5674 12.8932C30.2225 12.8932 30.7537 12.3706 30.7537 11.7259C30.7537 8.3817 28.1926 5.50502 24.8339 5.50502C21.4266 5.50502 19.0691 8.4349 19.0691 11.7259L19.0694 11.7505L19.1016 13.2557C19.1086 13.5847 19.2564 13.8954 19.5086 14.1115C19.7607 14.3275 20.0939 14.4288 20.4259 14.3905C20.6958 14.3593 20.9146 14.3254 21.0942 14.2962C21.1393 14.2889 21.1798 14.2822 21.2166 14.2761C21.3358 14.2565 21.4167 14.2432 21.4953 14.2333C21.6362 14.2155 21.7026 14.2157 21.8461 14.2509C22.2314 14.3455 22.6122 14.5611 22.937 14.897C23.2624 15.2337 23.5125 15.6726 23.6468 16.1699C23.7811 16.6672 23.7901 17.1888 23.6773 17.6734C23.5645 18.1578 23.3379 18.5733 23.041 18.8842C22.7457 19.1935 22.3917 19.3891 22.0226 19.4696C21.6542 19.55 21.2614 19.5179 20.8816 19.3634C20.4994 19.2079 20.1373 18.9305 19.8486 18.5418C19.462 18.0214 18.7198 17.9078 18.1909 18.2882C17.662 18.6687 17.5466 19.399 17.9332 19.9194C18.4605 20.6293 19.1621 21.19 19.975 21.5208C20.7903 21.8525 21.6782 21.936 22.5362 21.7488C23.3936 21.5617 24.1647 21.1168 24.7702 20.4826C25.3742 19.85 25.7896 19.0552 25.9899 18.1947C26.1902 17.3344 26.1714 16.4281 25.9398 15.5705C25.7083 14.7129 25.2688 13.922 24.6561 13.2881C24.0426 12.6535 23.2727 12.195 22.4204 11.9858C22.0497 11.8948 21.7439 11.8749 21.4455 11.8935L21.4417 11.7142Z" fill="current"/>
<path fill-rule="evenodd" clip-rule="evenodd" d="M6.69452 6.33041C6.23125 5.87456 5.48015 5.87456 5.01688 6.33041C-1.00563 12.2564 -1.00563 21.8644 5.01688 27.7904C5.48015 28.2463 6.23125 28.2463 6.69452 27.7904C7.15779 27.3346 7.15779 26.5955 6.69452 26.1397C1.59856 21.1253 1.59856 12.9955 6.69452 7.98118C7.15779 7.52533 7.15779 6.78626 6.69452 6.33041Z" fill="current"/>
<path fill-rule="evenodd" clip-rule="evenodd" d="M9.21072 8.80652C8.74745 8.35067 7.99635 8.35067 7.53308 8.80652C2.90038 13.365 2.90038 20.7557 7.53308 25.3142C7.99635 25.7701 8.74745 25.7701 9.21072 25.3142C9.67399 24.8584 9.67399 24.1193 9.21072 23.6635C5.50457 20.0167 5.50457 14.1041 9.21072 10.4573C9.67399 10.0014 9.67399 9.26236 9.21072 8.80652Z" fill="current"/>
<path fill-rule="evenodd" clip-rule="evenodd" d="M11.7269 11.2827C11.2637 10.8268 10.5125 10.8268 10.0493 11.2827C6.80639 14.4736 6.80639 19.6472 10.0493 22.8381C10.5125 23.2939 11.2637 23.2939 11.7269 22.8381C12.1902 22.3822 12.1902 21.6432 11.7269 21.1873C9.41058 18.9081 9.41058 15.2127 11.7269 12.9335C12.1902 12.4776 12.1902 11.7385 11.7269 11.2827Z" fill="current"/>
</svg>
