<svg width="current" height="current" viewBox="0 0 100 100" fill="none" xmlns="http://www.w3.org/2000/svg">
<rect width="100" height="100" rx="50" fill="current"/>
<path d="M54.1822 71.6641C54.9672 71.6641 55.698 71.5016 56.2394 71.2578C58.1612 70.2557 59.5146 68.8745 60.868 64.812C62.2484 60.587 64.8469 58.6099 67.3372 56.687C69.4755 55.0349 71.6951 53.3286 73.6169 49.8349C75.0515 47.2349 75.8364 44.3911 75.8364 41.8724C75.8364 34.2891 69.8815 28.3307 62.3025 28.3307C55.6319 28.3307 50.2193 32.9465 49.0178 39.2234C48.7411 40.669 47.5568 41.8724 46.0619 41.8724C44.567 41.8724 43.3357 40.6735 43.5312 39.2152C44.783 29.8766 52.5681 22.9141 62.3025 22.9141C72.9402 22.9141 81.25 31.2286 81.25 41.8724C81.25 45.2849 80.2214 49.0495 78.3537 52.4349C75.8906 56.9036 72.9943 59.1516 70.6394 60.9662C68.4469 62.6453 66.877 63.8641 66.0108 66.5182C64.3868 71.4474 62.3025 74.2099 58.6213 76.1328C57.2409 76.7557 55.7251 77.0807 54.1822 77.0807C49.0686 77.0807 44.7857 72.015 43.65 66.8053C43.3365 65.3671 44.567 64.163 46.0619 64.163C47.5568 64.163 48.7734 65.3787 49.2561 66.7709C50.1118 69.2392 52.0018 71.6641 54.1822 71.6641Z" fill="#B5B9BD"/>
<path fill-rule="evenodd" clip-rule="evenodd" d="M56.1458 42.3396C56.1553 38.2596 58.957 35.4205 62.2035 35.4205C65.5423 35.4205 68.5377 38.3642 68.5377 42.3604C68.5377 43.5116 69.4861 44.4448 70.656 44.4448C71.826 44.4448 72.7744 43.5116 72.7744 42.3604C72.7744 36.3886 68.201 31.2517 62.2035 31.2517C56.1189 31.2517 51.9091 36.4836 51.9091 42.3604L51.9096 42.4043L51.9671 45.0922C51.9796 45.6796 52.2436 46.2345 52.6939 46.6204C53.1442 47.0062 53.739 47.1871 54.3321 47.1186C54.8139 47.0629 55.2047 47.0024 55.5253 46.9503C55.606 46.9372 55.6782 46.9253 55.744 46.9144C55.9568 46.8794 56.1012 46.8556 56.2416 46.8379C56.4932 46.8061 56.6118 46.8065 56.868 46.8694C57.5561 47.0383 58.2361 47.4233 58.816 48.0232C59.3972 48.6244 59.8438 49.4081 60.0836 50.2962C60.3233 51.1842 60.3394 52.1156 60.138 52.981C59.9366 53.846 59.5319 54.5879 59.0018 55.143C58.4744 55.6955 57.8424 56.0447 57.1833 56.1885C56.5254 56.3321 55.824 56.2748 55.1457 55.9988C54.4632 55.7211 53.8167 55.2258 53.3011 54.5317C52.6107 53.6023 51.2854 53.3996 50.3409 54.0789C49.3964 54.7582 49.1903 56.0623 49.8807 56.9917C50.8223 58.2594 52.0751 59.2607 53.5269 59.8513C54.9827 60.4436 56.5683 60.5928 58.1004 60.2585C59.6314 59.9244 61.0084 59.1299 62.0896 57.9974C63.1682 56.8677 63.91 55.4484 64.2677 53.9118C64.6253 52.3755 64.5917 50.7573 64.1783 49.2258C63.7648 47.6944 62.98 46.282 61.8858 45.1501C60.7904 44.0168 59.4155 43.1982 57.8936 42.8246C57.2316 42.662 56.6856 42.6265 56.1527 42.6597L56.1458 42.3396Z" fill="#B5B9BD"/>
<path fill-rule="evenodd" clip-rule="evenodd" d="M29.8116 32.7256C28.9844 31.9116 27.6431 31.9116 26.8159 32.7256C16.0614 43.3078 16.0614 60.4649 26.8159 71.0471C27.6431 71.8611 28.9844 71.8611 29.8116 71.0471C30.6389 70.2331 30.6389 68.9133 29.8116 68.0993C20.7117 59.1451 20.7117 44.6276 29.8116 35.6734C30.6389 34.8594 30.6389 33.5396 29.8116 32.7256Z" fill="#B5B9BD"/>
<path fill-rule="evenodd" clip-rule="evenodd" d="M34.3049 37.1472C33.4776 36.3332 32.1363 36.3332 31.3091 37.1472C23.0364 45.2874 23.0364 58.4852 31.3091 66.6253C32.1363 67.4393 33.4776 67.4393 34.3049 66.6253C35.1321 65.8113 35.1321 64.4915 34.3049 63.6775C27.6867 57.1654 27.6867 46.6072 34.3049 40.095C35.1321 39.281 35.1321 37.9613 34.3049 37.1472Z" fill="#B5B9BD"/>
<path fill-rule="evenodd" clip-rule="evenodd" d="M38.7981 41.569C37.9708 40.755 36.6295 40.755 35.8023 41.569C30.0114 47.2671 30.0114 56.5055 35.8023 62.2036C36.6295 63.0176 37.9708 63.0176 38.7981 62.2036C39.6253 61.3896 39.6253 60.0698 38.7981 59.2558C34.6617 55.1858 34.6617 48.5869 38.7981 44.5168C39.6253 43.7028 39.6253 42.383 38.7981 41.569Z" fill="#B5B9BD"/>
</svg>
