<svg width="41" height="36" viewBox="0 0 41 36" fill="none" xmlns="http://www.w3.org/2000/svg">
<g clip-path="url(#clip0_3798_6044)">
<path d="M40.8779 24.7304C39.7782 21.9304 38.2493 19.3583 36.6429 16.8311C34.9441 14.154 32.4824 12.8439 29.3262 12.9129C27.9672 12.9429 26.6082 13.0598 25.2462 13.1377C24.6888 13.1677 24.1285 13.2007 23.4729 13.2366C23.6278 13.0598 23.7083 12.9578 23.7977 12.8649C24.3997 12.2444 25.0048 11.6208 25.6068 11.0002C27.8629 8.67691 30.119 6.35656 32.3721 4.03022C33.0248 3.3587 33.1738 2.47434 32.7923 1.66791C32.4138 0.85849 31.6896 0.450781 30.7508 0.504742C30.1428 0.540717 29.7017 0.870481 29.2934 1.29018C25.6723 5.00453 22.0483 8.71588 18.4302 12.4332C18.2245 12.6461 18.0487 12.691 17.7626 12.6131C16.1145 12.1634 14.672 11.345 13.4471 10.1519C12.3652 9.0996 11.5069 7.88247 11.0628 6.42551C10.8155 5.6071 10.3952 4.94757 9.63824 4.60282C9.04813 4.33601 8.39544 4.15014 7.75468 4.0572C4.87867 3.6495 3.22757 5.51117 2.96829 7.40282C2.94742 7.5617 2.78351 7.75356 2.63747 7.8375C1.9967 8.18526 1.32613 8.47605 0.697285 8.83879C0.488662 8.9617 0.253217 9.21652 0.220434 9.43836C-0.0924995 11.6448 0.989355 13.6444 3.60309 13.6234C4.50613 13.6174 5.40619 13.6234 6.26452 13.6234C6.49102 14.9784 6.646 16.2735 6.92913 17.5386C7.48347 20.0118 8.45207 22.2842 10.3118 24.0859C10.4072 24.1758 10.4638 24.3377 10.4817 24.4726C10.6724 25.9805 10.8482 27.4885 11.033 28.9934C11.2506 30.7771 10.7648 32.3 9.39683 33.4902C9.04217 33.799 9.02429 34.1857 9.03621 34.6024C9.05111 35.2529 9.27464 35.4958 9.90945 35.4958H11.1999C11.5248 35.4508 11.6529 35.2799 11.7721 35.118C12.1655 34.5754 12.848 33.8709 13.2206 33.2863C13.9627 32.1202 14.672 30.8521 14.4872 29.4431C14.4216 28.9424 14.3561 28.4448 14.2935 27.9441C14.1922 27.1467 14.0879 26.3523 13.9806 25.5549C13.9806 25.5489 13.9806 25.5399 13.9776 25.5369L13.766 24.7754L14.5468 24.8593L14.8747 24.8953C15.0445 26.2623 15.2055 27.6294 15.3753 28.9934C15.5929 30.7771 14.8449 32.1471 13.7392 33.4902C13.4411 33.8529 13.3666 34.1857 13.3785 34.6024C13.3934 35.2529 13.617 35.4958 14.2518 35.4958H15.5422C15.8671 35.4508 15.9953 35.2799 16.1145 35.118C16.5079 34.5754 17.1904 33.8709 17.5629 33.2863C18.305 32.1202 19.0143 30.8521 18.8295 29.4431C18.764 28.9424 18.6984 28.4448 18.6358 27.9441C18.5345 27.1467 18.4302 26.3523 18.3229 25.5549C18.3229 25.5489 18.3229 25.5399 18.3199 25.5369L18.2066 25.1322C19.5001 24.7035 20.7369 24.2688 21.9917 23.906C23.5921 23.4414 25.2104 23.0307 26.8257 22.6199C27.3622 22.485 27.6096 22.6259 27.7973 23.0936C28.4381 24.6735 29.4007 25.9596 30.6465 27.0118C30.727 27.6743 30.8045 28.3339 30.8879 28.9964C31.1055 30.7801 30.6197 32.303 29.2517 33.4932C28.897 33.802 28.8792 34.1887 28.8911 34.6054C28.906 35.2559 29.1295 35.4987 29.7643 35.4987H31.0548C31.4601 35.5017 31.8356 35.2919 32.0502 34.9441C32.3721 34.4165 32.843 33.6491 33.0755 33.2863C33.743 32.2371 34.3808 31.1039 34.3689 29.8598C34.7534 30.2525 34.9024 30.7501 34.9262 31.3527C34.962 32.1711 34.7772 32.8037 34.1126 33.2803C33.6179 33.6341 33.4927 34.1257 33.5463 34.7073C33.594 35.2619 33.7997 35.4928 34.357 35.4958C35.4239 35.5017 36.4909 35.5047 37.5579 35.4958C38.4639 35.4898 39.0063 34.9322 39.0093 34.0118C39.0122 32.369 39.0033 30.7262 39.0152 29.0803C39.0182 28.6037 38.8632 28.211 38.5265 27.8782C37.9513 27.3056 37.391 26.715 36.8068 26.1514C35.8471 25.2281 36.014 24.3947 36.2704 23.1446C36.3359 23.2315 36.3866 23.3155 36.4522 23.3784C37.1287 24.0379 37.7635 24.7544 38.5056 25.327C38.9288 25.6538 39.5189 25.8486 40.0583 25.9176C40.9167 26.0225 41.2117 25.5339 40.8958 24.7304H40.8779ZM7.7964 11.1741C7.73679 11.1741 7.67719 11.1621 7.61758 11.1411C7.44472 11.0752 7.32551 10.9193 7.30763 10.7334L7.16755 9.44736C7.16457 9.42037 7.16457 9.3874 7.16755 9.35742L7.34935 7.17198C7.36425 7.0071 7.50433 6.88419 7.67123 6.89918C7.83514 6.91417 7.95734 7.05806 7.94244 7.22294L7.76064 9.40539L7.87687 10.4696L9.6293 8.91374C9.75149 8.80581 9.94223 8.81481 10.0495 8.94072C10.1598 9.06363 10.1479 9.25549 10.0227 9.36342L8.11828 11.0542C8.02589 11.1351 7.91263 11.1771 7.79342 11.1771L7.7964 11.1741ZM18.2335 16.4623C17.9712 16.7292 17.8848 17.017 17.8878 17.3737C17.8937 19.3433 17.8788 21.3129 17.8997 23.2825C17.9056 23.6602 17.7924 23.8221 17.4318 23.8701C17.238 23.894 17.0503 23.945 16.8417 23.999C16.6926 24.0379 16.5496 23.924 16.5496 23.7711V19.9938C16.5466 19.2893 16.335 19.0795 15.6257 19.0795C13.5484 19.0795 11.4682 19.0585 9.38789 19.0915C8.91402 19.1005 8.7054 18.9476 8.61897 18.5099C8.58917 18.36 8.54744 18.2161 8.49976 18.0542C8.44909 17.8803 8.58022 17.7065 8.75904 17.7065H12.544C13.1938 17.7065 13.8405 17.6885 14.4872 17.7155C14.8866 17.7334 15.1786 17.5955 15.4528 17.3167C19.056 13.6593 22.6682 10.014 26.2714 6.35956C27.6245 4.98954 28.9567 3.60153 30.3127 2.2405C30.4885 2.06663 30.7627 1.91673 31.0012 1.90174C31.4482 1.87177 31.7433 2.3814 31.5525 2.79511C31.4869 2.93601 31.3767 3.06791 31.2664 3.18183C26.9241 7.61267 22.5818 12.0405 18.2305 16.4623H18.2335Z" fill="current"/>
</g>
<defs>
<clipPath id="clip0_3798_6044">
<rect width="40.8333" height="35" fill="white" transform="translate(0.166016 0.5)"/>
</clipPath>
</defs>
</svg>
