<svg width="current" height="current" viewBox="0 0 100 100" fill="none" xmlns="http://www.w3.org/2000/svg">
<rect width="100" height="100" rx="50" fill="current"/>
<g clip-path="url(#clip0_3478_1860)">
<path d="M87.2818 62.0186C85.318 57.0186 82.5878 52.4255 79.7193 47.9126C76.6857 43.1321 72.2897 40.7927 66.6538 40.9159C64.2269 40.9694 61.8001 41.1782 59.3679 41.3174C58.3727 41.3709 57.3722 41.4298 56.2013 41.494C56.4781 41.1782 56.6218 40.9962 56.7814 40.8302C57.8565 39.7221 58.9369 38.6086 60.0119 37.5004C64.0407 33.3516 68.0694 29.2081 72.0928 25.054C73.2583 23.8548 73.5244 22.2756 72.8432 20.8356C72.1673 19.3902 70.8741 18.6621 69.1977 18.7585C68.112 18.8227 67.3243 19.4116 66.5952 20.161C60.129 26.7938 53.6574 33.4212 47.1965 40.0593C46.8293 40.4394 46.5153 40.5197 46.0044 40.3805C43.0613 39.5775 40.4855 38.1161 38.2982 35.9855C36.3663 34.1064 34.8335 31.933 34.0406 29.3313C33.5988 27.8698 32.8484 26.6921 31.4966 26.0765C30.4429 25.6 29.2774 25.2681 28.1331 25.1022C22.9974 24.3741 20.049 27.6985 19.586 31.0765C19.5488 31.3602 19.2561 31.7028 18.9953 31.8527C17.851 32.4737 16.6536 32.9929 15.5307 33.6407C15.1581 33.8602 14.7377 34.3152 14.6791 34.7114C14.1203 38.6514 16.0522 42.2221 20.7196 42.1846C22.3322 42.1739 23.9394 42.1846 25.4721 42.1846C25.8766 44.6043 26.1534 46.9169 26.6589 49.176C27.6488 53.5925 29.3785 57.6503 32.6994 60.8677C32.8697 61.0283 32.9708 61.3174 33.0028 61.5583C33.3434 64.251 33.6574 66.9437 33.9873 69.6311C34.3758 72.8163 33.5084 75.5358 31.0656 77.661C30.4322 78.2124 30.4003 78.903 30.4216 79.6471C30.4482 80.8088 30.8474 81.2424 31.9809 81.2424H34.2854C34.8655 81.1621 35.0943 80.857 35.3072 80.5679C36.0097 79.5989 37.2284 78.3409 37.8937 77.297C39.2189 75.2146 40.4855 72.9501 40.1555 70.4341C40.0384 69.5401 39.9214 68.6514 39.8096 67.7574C39.6287 66.3334 39.4424 64.9148 39.2508 63.4908C39.2508 63.4801 39.2508 63.464 39.2455 63.4587L38.8676 62.0989L40.262 62.2488L40.8474 62.3131C41.1507 64.7542 41.4381 67.1953 41.7415 69.6311C42.13 72.8163 40.7942 75.2628 38.8197 77.661C38.2875 78.3088 38.1545 78.903 38.1758 79.6471C38.2024 80.8088 38.6015 81.2424 39.7351 81.2424H42.0395C42.6196 81.1621 42.8485 80.857 43.0613 80.5679C43.7638 79.5989 44.9826 78.3409 45.6478 77.297C46.973 75.2146 48.2396 72.9501 47.9097 70.4341C47.7926 69.5401 47.6755 68.6514 47.5638 67.7574C47.3828 66.3334 47.1965 64.9148 47.0049 63.4908C47.0049 63.4801 47.0049 63.464 46.9996 63.4587L46.7974 62.736C49.1071 61.9705 51.3158 61.1942 53.5563 60.5465C56.4142 59.7167 59.3041 58.9833 62.1886 58.2499C63.1466 58.009 63.5883 58.2606 63.9236 59.0957C65.0678 61.9169 66.7868 64.2135 69.0114 66.0925C69.1551 67.2756 69.2935 68.4533 69.4425 69.6364C69.831 72.8216 68.9635 75.5411 66.5207 77.6664C65.8874 78.2178 65.8555 78.9084 65.8767 79.6525C65.9034 80.8141 66.3025 81.2478 67.4361 81.2478H69.7405C70.4643 81.2531 71.1349 80.8784 71.5181 80.2574C72.0928 79.3152 72.9337 77.9448 73.3488 77.297C74.541 75.4234 75.6799 73.3998 75.6586 71.1782C76.3451 71.8795 76.6112 72.7681 76.6538 73.8441C76.7176 75.3056 76.3877 76.4351 75.2009 77.2863C74.3174 77.918 74.0939 78.7959 74.1897 79.8345C74.2748 80.8249 74.6421 81.2371 75.6373 81.2424C77.5426 81.2531 79.4478 81.2585 81.3531 81.2424C82.971 81.2317 83.9396 80.236 83.9449 78.5925C83.9502 75.6589 83.9343 72.7253 83.9556 69.7863C83.9609 68.9351 83.6841 68.2338 83.0828 67.6396C82.0556 66.6171 81.0551 65.5625 80.012 64.5561C78.2983 62.9073 78.5963 61.4191 79.054 59.1867C79.1711 59.342 79.2616 59.4919 79.3786 59.6043C80.5867 60.782 81.7203 62.0615 83.0455 63.084C83.8012 63.6675 84.855 64.0154 85.8183 64.1386C87.351 64.3259 87.8779 63.4533 87.3137 62.0186H87.2818ZM28.2077 37.8109C28.1012 37.8109 27.9948 37.7895 27.8883 37.752C27.5797 37.6343 27.3668 37.3559 27.3348 37.024L27.0847 34.7274C27.0794 34.6792 27.0794 34.6204 27.0847 34.5668L27.4094 30.6643C27.436 30.3698 27.6861 30.1503 27.9841 30.1771C28.2768 30.2039 28.495 30.4608 28.4684 30.7553L28.1438 34.6525L28.3513 36.5529L31.4807 33.7745C31.6989 33.5818 32.0395 33.5979 32.2311 33.8227C32.428 34.0422 32.4067 34.3848 32.1832 34.5775L28.7824 37.5968C28.6174 37.7413 28.4152 37.8163 28.2023 37.8163L28.2077 37.8109ZM46.8453 47.2542C46.3769 47.7306 46.2226 48.2446 46.2279 48.8816C46.2386 52.3987 46.212 55.9159 46.2492 59.433C46.2599 60.1075 46.0576 60.3966 45.4137 60.4822C45.0677 60.5251 44.7325 60.6161 44.3599 60.7124C44.0938 60.782 43.8384 60.5786 43.8384 60.3056V53.5604C43.833 52.3024 43.4552 51.9276 42.1885 51.9276C38.4791 51.9276 34.7644 51.8902 31.0496 51.9491C30.2034 51.9651 29.8309 51.6921 29.6765 50.9105C29.6233 50.6428 29.5488 50.3859 29.4636 50.0968C29.3732 49.7863 29.6073 49.4758 29.9267 49.4758H36.6856C37.8458 49.4758 39.0007 49.4437 40.1555 49.4919C40.8687 49.524 41.3902 49.2777 41.8799 48.7799C48.3142 42.2488 54.7644 35.7392 61.1987 29.2135C63.6149 26.767 65.9938 24.2884 68.4153 21.858C68.7293 21.5475 69.219 21.2799 69.6447 21.2531C70.443 21.1996 70.9699 22.1096 70.6293 22.8484C70.5122 23.1 70.3153 23.3356 70.1184 23.539C62.3642 31.4512 54.6101 39.358 46.84 47.2542H46.8453Z" fill="#B5B9BD"/>
</g>
<defs>
<clipPath id="clip0_3478_1860">
<rect width="72.9167" height="62.5" fill="white" transform="translate(14.5835 18.75)"/>
</clipPath>
</defs>
</svg>
