<svg width="current" height="current" viewBox="0 0 100 100" fill="none" xmlns="http://www.w3.org/2000/svg">
<rect className="background-circle" width="100" height="100" rx="50" fill="current"/>
<path d="M20.8335 62.5V18.75H39.3553C48.535 18.75 54.1949 24.6168 54.1667 33.1424C54.1949 41.7836 48.4224 47.477 39.0737 47.477H30.4074V62.5H20.8335ZM30.4074 39.6739H37.3278C41.8614 39.7028 44.2549 37.1018 44.2549 33.1424C44.2549 29.2409 41.8614 26.7265 37.3278 26.7265H30.4074V39.6739Z" fill="#B5B9BD"/>
<path d="M66.1804 43.4922C66.1804 45.6496 64.4082 47.3984 62.2221 47.3984C60.036 47.3984 58.2638 45.6496 58.2638 43.4922C58.2638 41.3348 60.036 39.5859 62.2221 39.5859C64.4082 39.5859 66.1804 41.3348 66.1804 43.4922Z" fill="#B5B9BD"/>
<path fill-rule="evenodd" clip-rule="evenodd" d="M50.2684 49.0964C50.6878 48.8377 51.1724 48.7005 51.667 48.7005H60.903C62.3604 48.7005 63.5418 49.8664 63.5418 51.3047V57.2943L68.75 60.4193L72.1182 60.4193C73.1177 60.4193 74.0314 60.9766 74.4784 61.8588L79.0268 70.8359H80.6945C82.1519 70.8359 83.3333 72.0019 83.3333 73.4401C83.3333 74.8784 82.1519 76.0443 80.6945 76.0443H77.3959C76.3964 76.0443 75.4826 75.487 75.0356 74.6047L70.4872 65.6276H69.8444C69.1544 65.6276 68.2058 61.4774 65.625 59.3776C62.7545 57.0421 58.2641 56.6974 58.2641 55.9401V53.9089H52.4238L47.7878 56.7682C46.5519 57.5305 44.9239 57.1597 44.1515 55.9401C43.379 54.7205 43.7547 53.1138 44.9906 52.3516L50.2684 49.0964Z" fill="#B5B9BD"/>
<path fill-rule="evenodd" clip-rule="evenodd" d="M58.2638 57.8151C52.4341 57.8151 47.7083 62.4788 47.7083 68.2318C47.7083 73.9847 52.4341 78.6484 58.2638 78.6484C64.0934 78.6484 68.8192 73.9847 68.8192 68.2318C68.8192 62.4788 64.0934 57.8151 58.2638 57.8151ZM45.0694 68.2318C45.0694 61.0406 50.9767 55.2109 58.2638 55.2109C65.5508 55.2109 71.4581 61.0406 71.4581 68.2318C71.4581 75.423 65.5508 81.2526 58.2638 81.2526C50.9767 81.2526 45.0694 75.423 45.0694 68.2318Z" fill="#B5B9BD"/>
</svg>
