<svg width="current" height="current" viewBox="0 0 100 100" fill="none" xmlns="http://www.w3.org/2000/svg">
<rect width="100" height="100" rx="50" fill="current"/>
<g clip-path="url(#clip0_3478_1948)">
<path d="M32.1382 46.4741V18.9531H33.3222V46.4741H32.1382Z" fill="#FCFCFD"/>
<path d="M18.75 27.1638C18.75 25.4529 20.1404 24.0625 21.8513 24.0625H26.7722C28.4831 24.0625 29.8735 25.4529 29.8735 27.1638V34.1215C29.8735 34.7081 29.3956 35.186 28.809 35.186C28.2224 35.186 27.7444 34.7081 27.7444 34.1215V27.8047H27.3588V45.4188C27.3588 46.1738 26.745 46.7929 25.9846 46.7929C25.2242 46.7929 24.6105 46.1792 24.6105 45.4188V35.0394H24.0348V45.4188H24.0293C24.0293 46.1738 23.4156 46.7929 22.6552 46.7929C21.8948 46.7929 21.2865 46.1792 21.2865 45.4188V27.8047H20.9008V34.1215C20.9008 34.7081 20.4229 35.186 19.8363 35.186C19.2497 35.186 18.75 34.7135 18.75 34.1269V27.1693V27.1638Z" fill="#FCFCFD"/>
<path d="M24.2848 23.6057C22.9432 23.6057 21.8569 22.5194 21.8569 21.1778C21.8569 19.8363 22.9432 18.75 24.2848 18.75C25.6263 18.75 26.7126 19.8363 26.7126 21.1778C26.7126 22.5194 25.6263 23.6057 24.2848 23.6057Z" fill="#FCFCFD"/>
<path d="M34.7129 32.7225H34.7021L36.6574 26.0419V26.0528C36.9996 24.9067 38.0587 24.0703 39.3133 24.0703H43.2674C44.5221 24.0703 45.5812 24.9067 45.9179 26.0528V26.0419L47.8732 32.7225H47.8624C47.895 32.8257 47.9167 32.9289 47.9167 33.0376C47.9167 33.597 47.4659 34.0478 46.9065 34.0478C46.4448 34.0478 46.0592 33.7382 45.9397 33.3146H45.9288L44.1473 27.2042H43.7128L46.8033 37.79H43.8486V45.4212C43.8594 45.4918 43.8703 45.5624 43.8703 45.633C43.8703 46.2739 43.3489 46.7899 42.7134 46.7899C42.0779 46.7899 41.5565 46.2739 41.5565 45.633V37.79H41.0297V45.633C41.0297 46.2739 40.5137 46.7899 39.8728 46.7899C39.2319 46.7899 38.7105 46.2739 38.7105 45.633C38.7105 45.5624 38.7213 45.4918 38.7322 45.4212V37.79H35.7775L38.868 27.2042H38.4335L36.652 33.3146H36.6411C36.5216 33.7328 36.136 34.0478 35.6743 34.0478C35.1149 34.0478 34.6641 33.597 34.6641 33.0376C34.6641 32.9289 34.6858 32.8257 34.7184 32.7225H34.7129Z" fill="#FCFCFD"/>
<path d="M41.2574 23.6135C39.9159 23.6135 38.8296 22.5272 38.8296 21.1857C38.8296 19.8441 39.9159 18.7578 41.2574 18.7578C42.599 18.7578 43.6853 19.8441 43.6853 21.1857C43.6853 22.5272 42.599 23.6135 41.2574 23.6135Z" fill="#FCFCFD"/>
</g>
<path d="M66.1804 43.4922C66.1804 45.6496 64.4082 47.3984 62.2221 47.3984C60.036 47.3984 58.2638 45.6496 58.2638 43.4922C58.2638 41.3348 60.036 39.5859 62.2221 39.5859C64.4082 39.5859 66.1804 41.3348 66.1804 43.4922Z" fill="#FCFCFD"/>
<path fill-rule="evenodd" clip-rule="evenodd" d="M50.2684 49.0964C50.6878 48.8377 51.1724 48.7005 51.667 48.7005H60.903C62.3604 48.7005 63.5418 49.8664 63.5418 51.3047V57.2943L68.75 60.4193L72.1182 60.4193C73.1177 60.4193 74.0314 60.9766 74.4784 61.8588L79.0268 70.8359H80.6945C82.1519 70.8359 83.3333 72.0019 83.3333 73.4401C83.3333 74.8784 82.1519 76.0443 80.6945 76.0443H77.3959C76.3964 76.0443 75.4826 75.487 75.0356 74.6047L70.4872 65.6276H69.8444C69.1544 65.6276 68.2058 61.4774 65.625 59.3776C62.7545 57.0421 58.2641 56.6974 58.2641 55.9401V53.9089H52.4238L47.7878 56.7682C46.5519 57.5305 44.9239 57.1597 44.1515 55.9401C43.379 54.7205 43.7547 53.1138 44.9906 52.3516L50.2684 49.0964Z" fill="#FCFCFD"/>
<path fill-rule="evenodd" clip-rule="evenodd" d="M58.2638 57.8151C52.4341 57.8151 47.7083 62.4788 47.7083 68.2318C47.7083 73.9847 52.4341 78.6484 58.2638 78.6484C64.0934 78.6484 68.8192 73.9847 68.8192 68.2318C68.8192 62.4788 64.0934 57.8151 58.2638 57.8151ZM45.0694 68.2318C45.0694 61.0406 50.9767 55.2109 58.2638 55.2109C65.5508 55.2109 71.4581 61.0406 71.4581 68.2318C71.4581 75.423 65.5508 81.2526 58.2638 81.2526C50.9767 81.2526 45.0694 75.423 45.0694 68.2318Z" fill="#FCFCFD"/>
<defs>
<clipPath id="clip0_3478_1948">
<rect width="29.1667" height="28.0369" fill="white" transform="translate(18.75 18.75)"/>
</clipPath>
</defs>
</svg>
