<svg width="current" height="current" viewBox="0 0 100 100" fill="none" xmlns="http://www.w3.org/2000/svg">
<rect className="background-circle" width="100" height="100" rx="50" fill="current"/>
<path d="M58.0553 26.5C58.0553 29.6282 55.4436 32.1641 52.222 32.1641C49.0004 32.1641 46.3887 29.6282 46.3887 26.5C46.3887 23.3718 49.0004 20.8359 52.222 20.8359C55.4436 20.8359 58.0553 23.3718 58.0553 26.5Z" fill="#B5B9BD"/>
<path fill-rule="evenodd" clip-rule="evenodd" d="M34.606 34.626C35.2241 34.251 35.9382 34.0521 36.6671 34.0521H50.2781C52.4258 34.0521 54.1669 35.7427 54.1669 37.8281V46.513L61.8421 51.0443L66.8057 51.0443C68.2787 51.0443 69.6253 51.8524 70.284 53.1316L76.9869 66.1484H79.4445C81.5922 66.1484 83.3333 67.839 83.3333 69.9245C83.3333 72.0099 81.5922 73.7005 79.4445 73.7005H74.5834C73.1104 73.7005 71.7639 72.8924 71.1051 71.6132L64.4023 58.5964H63.4549C62.4381 58.5964 61.0401 52.5785 57.2368 49.5339C53.0066 46.1473 46.3892 45.6476 46.3892 44.5495V41.6042H37.7824L30.9505 45.7503C29.1292 46.8555 26.7299 46.3179 25.5916 44.5495C24.4533 42.781 25.007 40.4514 26.8283 39.3461L34.606 34.626Z" fill="#B5B9BD"/>
<path fill-rule="evenodd" clip-rule="evenodd" d="M46.3887 47.2682C37.7977 47.2682 30.8333 54.0306 30.8333 62.3724C30.8333 70.7142 37.7977 77.4766 46.3887 77.4766C54.9797 77.4766 61.9441 70.7142 61.9441 62.3724C61.9441 54.0306 54.9797 47.2682 46.3887 47.2682ZM26.9444 62.3724C26.9444 51.9451 35.6499 43.4922 46.3887 43.4922C57.1275 43.4922 65.833 51.9451 65.833 62.3724C65.833 72.7996 57.1275 81.2526 46.3887 81.2526C35.6499 81.2526 26.9444 72.7996 26.9444 62.3724Z" fill="#B5B9BD"/>
</svg>
