<svg width="33" height="35" viewBox="0 0 33 35" fill="none" xmlns="http://www.w3.org/2000/svg">
<path d="M18.5109 3.83594C18.5109 5.58772 17.0484 7.00781 15.2443 7.00781C13.4402 7.00781 11.9777 5.58772 11.9777 3.83594C11.9777 2.08416 13.4402 0.664062 15.2443 0.664062C17.0484 0.664062 18.5109 2.08416 18.5109 3.83594Z" fill="current"/>
<path fill-rule="evenodd" clip-rule="evenodd" d="M5.37936 8.38652C5.72547 8.17648 6.12541 8.0651 6.53357 8.0651H14.1557C15.3585 8.0651 16.3335 9.01184 16.3335 10.1797V15.0432L20.6316 17.5807L23.4112 17.5807C24.2361 17.5807 24.9901 18.0333 25.359 18.7496L29.1126 26.0391H30.4889C31.6917 26.0391 32.6667 26.9858 32.6667 28.1536C32.6667 29.3215 31.6917 30.2682 30.4889 30.2682H27.7667C26.9418 30.2682 26.1878 29.8157 25.8189 29.0993L22.0653 21.8099H21.5347C20.9653 21.8099 20.1824 18.4399 18.0526 16.7349C15.6837 14.8384 11.978 14.5586 11.978 13.9436V12.2943H7.15814L3.33226 14.6161C2.31234 15.235 0.968767 14.934 0.331315 13.9436C-0.306138 12.9533 0.00391651 11.6487 1.02384 11.0298L5.37936 8.38652Z" fill="current"/>
<path fill-rule="evenodd" clip-rule="evenodd" d="M11.9777 15.4661C7.1667 15.4661 3.26664 19.2531 3.26664 23.9245C3.26664 28.5959 7.1667 32.3828 11.9777 32.3828C16.7886 32.3828 20.6887 28.5959 20.6887 23.9245C20.6887 19.2531 16.7886 15.4661 11.9777 15.4661ZM1.08888 23.9245C1.08888 18.0852 5.96396 13.3516 11.9777 13.3516C17.9914 13.3516 22.8665 18.0852 22.8665 23.9245C22.8665 29.7637 17.9914 34.4974 11.9777 34.4974C5.96396 34.4974 1.08888 29.7637 1.08888 23.9245Z" fill="current"/>
</svg>
