<svg width="34" height="37" viewBox="0 0 34 37" fill="none" xmlns="http://www.w3.org/2000/svg">
<path fill-rule="evenodd" clip-rule="evenodd" d="M9.54858 2.63976C9.54858 1.30267 10.6325 0.21875 11.9696 0.21875C13.3067 0.21875 14.3906 1.30267 14.3906 2.63976V10.9693C14.3885 11.0207 14.3874 11.0725 14.3874 11.1247V21.423C14.3874 23.7374 16.4624 25.1934 18.4649 25.1934C19.5877 25.1934 20.7332 24.7357 21.523 23.9256C22.3129 24.7357 23.4584 25.1934 24.5812 25.1934C26.5837 25.1934 28.6586 23.7374 28.6586 21.423L28.6586 14.49V7.99146C28.6586 6.65437 29.7426 5.57045 31.0796 5.57045C32.4167 5.57045 33.5007 6.65437 33.5007 7.99146L33.5006 14.49L33.5007 19.2045L33.5006 19.2089V31.437C33.5006 34.3927 31.1046 36.7887 28.149 36.7887H15.1538C13.1915 36.7887 11.3866 35.7148 10.4504 33.9903L1.00888 16.5979C0.492665 15.647 1.18111 14.49 2.26311 14.49H2.62867C4.42944 14.49 6.10949 15.3956 7.09934 16.8999L9.54858 20.6221V2.63976ZM26.8747 13.3203C26.8747 13.046 26.8106 12.7847 26.6945 12.5471C26.3463 11.8341 25.5312 11.3338 24.5812 11.3338C24.0273 11.3338 23.5193 11.5039 23.1229 11.787C22.896 11.949 22.7058 12.148 22.5644 12.3734C22.5569 12.3853 22.5496 12.3973 22.5424 12.4094C22.3796 12.6822 22.2876 12.992 22.2876 13.3203V14.49L22.2876 21.423C22.2876 21.6937 22.3501 21.9517 22.4633 22.1869C22.8089 22.9048 23.627 23.4095 24.5812 23.4095C25.8479 23.4095 26.8747 22.5201 26.8747 21.423V13.3203C26.8747 13.3203 26.8747 13.3203 26.8747 13.3203ZM20.7585 11.1247C20.7585 10.8504 20.6943 10.5892 20.5783 10.3515C20.2301 9.63853 19.415 9.13827 18.4649 9.13827C17.8539 9.13827 17.2987 9.34521 16.8876 9.68259C16.4465 10.0446 16.1713 10.5568 16.1713 11.1247V14.49L16.1713 21.423C16.1713 22.5201 17.1982 23.4095 18.4649 23.4095C19.4191 23.4095 20.2372 22.9048 20.5828 22.1869C20.696 21.9517 20.7585 21.6937 20.7585 21.423V11.1247C20.7585 11.1247 20.7585 11.1247 20.7585 11.1247Z" fill="current"/>
</svg>
