<svg width="36" height="36" viewBox="0 0 36 36" fill="none" xmlns="http://www.w3.org/2000/svg">
<path d="M0.5 35.5026L35.5 23.8359V35.5026H0.5Z" fill="current"/>
<path d="M18.0394 3.125C18.0394 4.57475 16.838 5.75 15.3561 5.75C13.8741 5.75 12.6728 4.57475 12.6728 3.125C12.6728 1.67525 13.8741 0.5 15.3561 0.5C16.838 0.5 18.0394 1.67525 18.0394 3.125Z" fill="current"/>
<path fill-rule="evenodd" clip-rule="evenodd" d="M7.25274 6.891C7.53705 6.71717 7.86557 6.625 8.20084 6.625H14.4619C15.4499 6.625 16.2508 7.4085 16.2508 8.375V12.4L19.7814 14.5L22.0646 14.5C22.7422 14.5 23.3616 14.8745 23.6646 15.4674L26.7479 21.5H27.8784C28.8664 21.5 29.6673 22.2835 29.6673 23.25C29.6673 24.2165 28.8664 25 27.8784 25H25.6424C24.9648 25 24.3454 24.6255 24.0423 24.0326L20.959 18H20.5232C20.0555 18 19.4124 15.2111 17.6629 13.8C15.717 12.2305 12.673 11.9989 12.673 11.49V10.125H8.71389L5.5712 12.0465C4.7334 12.5587 3.62976 12.3096 3.10614 11.49C2.58251 10.6704 2.8372 9.59075 3.675 9.0785L7.25274 6.891Z" fill="current"/>
<path fill-rule="evenodd" clip-rule="evenodd" d="M12.6728 12.75C8.72092 12.75 5.51729 15.884 5.51729 19.75C5.51729 23.616 8.72092 26.75 12.6728 26.75C16.6247 26.75 19.8283 23.616 19.8283 19.75C19.8283 15.884 16.6247 12.75 12.6728 12.75ZM3.72842 19.75C3.72842 14.9175 7.73295 11 12.6728 11C17.6126 11 21.6172 14.9175 21.6172 19.75C21.6172 24.5825 17.6126 28.5 12.6728 28.5C7.73295 28.5 3.72842 24.5825 3.72842 19.75Z" fill="current"/>
</svg>
