<svg width="34" height="41" viewBox="0 0 34 41" fill="none" xmlns="http://www.w3.org/2000/svg">
<rect x="1.83398" y="11.5" width="30.3333" height="28" rx="2" stroke="#FCFCFD" stroke-width="2"/>
<path d="M11.834 8C11.834 8.27614 12.0578 8.5 12.334 8.5C12.6101 8.5 12.834 8.27614 12.834 8L11.834 8ZM12.6875 0.646447C12.4923 0.451184 12.1757 0.451184 11.9804 0.646447L8.79845 3.82843C8.60319 4.02369 8.60319 4.34027 8.79845 4.53553C8.99371 4.7308 9.3103 4.7308 9.50556 4.53553L12.334 1.70711L15.1624 4.53553C15.3577 4.7308 15.6743 4.7308 15.8695 4.53553C16.0648 4.34027 16.0648 4.02369 15.8695 3.82843L12.6875 0.646447ZM12.834 8L12.834 1L11.834 1L11.834 8L12.834 8Z" fill="current"/>
<path d="M22.166 1C22.166 0.723858 21.9422 0.5 21.666 0.5C21.3899 0.5 21.166 0.723858 21.166 1L22.166 1ZM21.3125 8.35355C21.5077 8.54882 21.8243 8.54882 22.0196 8.35355L25.2015 5.17157C25.3968 4.97631 25.3968 4.65973 25.2015 4.46447C25.0063 4.2692 24.6897 4.2692 24.4944 4.46447L21.666 7.29289L18.8376 4.46447C18.6423 4.2692 18.3257 4.2692 18.1305 4.46447C17.9352 4.65973 17.9352 4.97631 18.1305 5.17157L21.3125 8.35355ZM21.166 1L21.166 8L22.166 8L22.166 1L21.166 1Z" fill="current"/>
<path d="M19.061 16.0234C19.061 17.2316 18.0686 18.2109 16.8444 18.2109C15.6201 18.2109 14.6277 17.2316 14.6277 16.0234C14.6277 14.8153 15.6201 13.8359 16.8444 13.8359C18.0686 13.8359 19.061 14.8153 19.061 16.0234Z" fill="current"/>
<path fill-rule="evenodd" clip-rule="evenodd" d="M10.1503 19.1618C10.3851 19.0169 10.6565 18.9401 10.9335 18.9401H16.1057C16.9218 18.9401 17.5834 19.593 17.5834 20.3984V23.7526L20.5 25.5026L22.3862 25.5026C22.9459 25.5026 23.4576 25.8147 23.7079 26.3088L26.255 31.3359H27.1889C28.0051 31.3359 28.6667 31.9889 28.6667 32.7943C28.6667 33.5997 28.0051 34.2526 27.1889 34.2526H25.3417C24.782 34.2526 24.2703 33.9405 24.0199 33.4465L21.4729 28.4193H21.1129C20.7265 28.4193 20.1952 26.0952 18.75 24.9193C17.1425 23.6114 14.6279 23.4184 14.6279 22.9943V21.8568H11.3573L8.76118 23.458C8.06909 23.8849 7.15738 23.6773 6.72482 22.9943C6.29226 22.3113 6.50266 21.4116 7.19475 20.9847L10.1503 19.1618Z" fill="current"/>
<path fill-rule="evenodd" clip-rule="evenodd" d="M14.6277 24.0443C11.3631 24.0443 8.71665 26.6559 8.71665 29.8776C8.71665 33.0993 11.3631 35.7109 14.6277 35.7109C17.8923 35.7109 20.5388 33.0993 20.5388 29.8776C20.5388 26.6559 17.8923 24.0443 14.6277 24.0443ZM7.23888 29.8776C7.23888 25.8505 10.547 22.5859 14.6277 22.5859C18.7084 22.5859 22.0165 25.8505 22.0165 29.8776C22.0165 33.9047 18.7084 37.1693 14.6277 37.1693C10.547 37.1693 7.23888 33.9047 7.23888 29.8776Z" fill="current"/>
</svg>
