<svg width="44" height="25" viewBox="0 0 44 25" fill="none" xmlns="http://www.w3.org/2000/svg">
<path d="M37.584 22.0851H24.7507V23.3746C24.7507 23.7166 24.6154 24.0446 24.3748 24.2864C24.1341 24.5282 23.8077 24.6641 23.4673 24.6641H20.9007C20.5603 24.6641 20.2339 24.5282 19.9932 24.2864C19.7525 24.0446 19.6173 23.7166 19.6173 23.3746V11.7693H19.334C18.7817 11.7693 18.334 11.3216 18.334 10.7693V7.61143C18.334 7.05915 18.7817 6.61143 19.334 6.61143H19.6173V2.74301C19.6173 2.05903 19.8877 1.40306 20.3691 0.919419C20.8504 0.435772 21.5033 0.164063 22.184 0.164062H40.1507C40.8314 0.164063 41.4842 0.435772 41.9656 0.919419C42.4469 1.40306 42.7173 2.05903 42.7173 2.74301V6.61143H43.0006C43.5529 6.61143 44.0007 7.05915 44.0007 7.61143V10.7693C44.0007 11.3216 43.5529 11.7693 43.0006 11.7693H42.7173V23.3746C42.7173 23.7166 42.5821 24.0446 42.3414 24.2864C42.1008 24.5282 41.7743 24.6641 41.434 24.6641H38.8673C38.527 24.6641 38.2005 24.5282 37.9599 24.2864C37.7192 24.0446 37.584 23.7166 37.584 23.3746V22.0851ZM22.184 2.74301V11.7693H40.1507V2.74301H22.184ZM25.3923 19.5062C25.9029 19.5062 26.3925 19.3024 26.7535 18.9396C27.1145 18.5769 27.3173 18.0849 27.3173 17.572C27.3173 17.059 27.1145 16.567 26.7535 16.2043C26.3925 15.8415 25.9029 15.6377 25.3923 15.6377C24.8818 15.6377 24.3921 15.8415 24.0311 16.2043C23.6701 16.567 23.4673 17.059 23.4673 17.572C23.4673 18.0849 23.6701 18.5769 24.0311 18.9396C24.3921 19.3024 24.8818 19.5062 25.3923 19.5062ZM36.9423 19.5062C37.4529 19.5062 37.9425 19.3024 38.3035 18.9396C38.6645 18.5769 38.8673 18.0849 38.8673 17.572C38.8673 17.059 38.6645 16.567 38.3035 16.2043C37.9425 15.8415 37.4529 15.6377 36.9423 15.6377C36.4318 15.6377 35.9421 15.8415 35.5811 16.2043C35.2201 16.567 35.0173 17.059 35.0173 17.572C35.0173 18.0849 35.2201 18.5769 35.5811 18.9396C35.9421 19.3024 36.4318 19.5062 36.9423 19.5062Z" fill="current"/>
<path d="M10.0895 8.80469C10.0895 9.71078 9.3582 10.4453 8.45614 10.4453C7.55408 10.4453 6.82282 9.71078 6.82282 8.80469C6.82282 7.8986 7.55408 7.16406 8.45614 7.16406C9.3582 7.16406 10.0895 7.8986 10.0895 8.80469Z" fill="current"/>
<path fill-rule="evenodd" clip-rule="evenodd" d="M3.52366 11.1584C3.69672 11.0498 3.89669 10.9922 4.10077 10.9922H7.91184C8.51322 10.9922 9.00072 11.4819 9.00072 12.0859V14.6016L11.1498 15.9141L12.5396 15.9141C12.952 15.9141 13.3291 16.1481 13.5135 16.5187L15.3903 20.2891H16.0784C16.6798 20.2891 17.1673 20.7788 17.1673 21.3828C17.1673 21.9869 16.6798 22.4766 16.0784 22.4766H14.7173C14.3049 22.4766 13.9279 22.2425 13.7434 21.872L11.8666 18.1016H11.6014C11.3167 18.1016 10.9252 16.3585 9.8603 15.4766C8.67584 14.4956 6.82297 14.3509 6.82297 14.0328V13.1797H4.41305L2.50011 14.3806C1.99015 14.7008 1.31837 14.5451 0.999642 14.0328C0.680915 13.5206 0.835943 12.8458 1.3459 12.5256L3.52366 11.1584Z" fill="current"/>
<path fill-rule="evenodd" clip-rule="evenodd" d="M6.82282 14.8203C4.41733 14.8203 2.4673 16.7791 2.4673 19.1953C2.4673 21.6116 4.41733 23.5703 6.82282 23.5703C9.2283 23.5703 11.1783 21.6116 11.1783 19.1953C11.1783 16.7791 9.2283 14.8203 6.82282 14.8203ZM1.37842 19.1953C1.37842 16.175 3.81596 13.7266 6.82282 13.7266C9.82968 13.7266 12.2672 16.175 12.2672 19.1953C12.2672 22.2156 9.82968 24.6641 6.82282 24.6641C3.81596 24.6641 1.37842 22.2156 1.37842 19.1953Z" fill="current"/>
</svg>
