<svg width="36" height="36" viewBox="0 0 36 36" fill="none" xmlns="http://www.w3.org/2000/svg">
<rect x="0.5" y="0.5" width="35" height="35" rx="2" stroke="current"/>
<circle cx="4.875" cy="4.32812" r="1.64062" fill="current"/>
<circle cx="11.4375" cy="4.32812" r="1.64062" fill="current"/>
<circle cx="18" cy="4.32812" r="1.64062" fill="current"/>
<circle cx="24.5625" cy="4.32812" r="1.64062" fill="current"/>
<circle cx="31.125" cy="4.32812" r="1.64062" fill="current"/>
<circle cx="4.875" cy="9.79688" r="1.64062" fill="current"/>
<circle cx="11.4375" cy="9.79688" r="1.64062" fill="current"/>
<circle cx="18" cy="9.79688" r="1.64062" fill="current"/>
<circle cx="24.5625" cy="9.79688" r="1.64062" fill="current"/>
<circle cx="31.125" cy="9.79688" r="1.64062" fill="current"/>
<circle cx="4.875" cy="15.2656" r="1.64062" fill="current"/>
<circle cx="11.4375" cy="15.2656" r="1.64062" fill="current"/>
<circle cx="18" cy="15.2656" r="1.64062" fill="current"/>
<circle cx="24.5625" cy="15.2656" r="1.64062" fill="current"/>
<circle cx="31.125" cy="15.2656" r="1.64062" fill="current"/>
<circle cx="4.875" cy="20.7344" r="1.64062" fill="current"/>
<circle cx="11.4375" cy="20.7344" r="1.64062" fill="current"/>
<circle cx="18" cy="20.7344" r="1.64062" fill="current"/>
<circle cx="24.5625" cy="20.7344" r="1.64062" fill="current"/>
<circle cx="31.125" cy="20.7344" r="1.64062" fill="current"/>
<circle cx="4.875" cy="26.2031" r="1.64062" fill="current"/>
<circle cx="11.4375" cy="26.2031" r="1.64062" fill="current"/>
<circle cx="18" cy="26.2031" r="1.64062" fill="current"/>
<circle cx="24.5625" cy="26.2031" r="1.64062" fill="current"/>
<circle cx="31.125" cy="26.2031" r="1.64062" fill="current"/>
<circle cx="4.875" cy="31.6719" r="1.64062" fill="current"/>
<circle cx="11.4375" cy="31.6719" r="1.64062" fill="current"/>
<circle cx="18" cy="31.6719" r="1.64062" fill="current"/>
<circle cx="24.5625" cy="31.6719" r="1.64062" fill="current"/>
<circle cx="31.125" cy="31.6719" r="1.64062" fill="current"/>
</svg>
