<svg width="32" height="37" viewBox="0 0 32 37" fill="none" xmlns="http://www.w3.org/2000/svg">
<circle cx="2" cy="2.41406" r="1.75" fill="current"/>
<circle cx="16" cy="8.25" r="1.75" fill="current"/>
<circle cx="23" cy="2.41406" r="1.75" fill="current"/>
<circle cx="30" cy="8.25" r="1.75" fill="current"/>
<circle cx="30" cy="2.41406" r="1.75" fill="current"/>
<circle cx="2" cy="14.0781" r="1.75" fill="current"/>
<circle cx="9" cy="8.25" r="1.75" fill="current"/>
<circle cx="9" cy="2.41406" r="1.75" fill="current"/>
<path d="M15.8653 13.9193C15.8653 13.0448 16.5742 12.3359 17.4487 12.3359C18.3231 12.3359 19.032 13.0448 19.032 13.9193V28.2526C19.032 29.1271 18.3231 29.8359 17.4487 29.8359C16.5742 29.8359 15.8653 29.1271 15.8653 28.2526V13.9193Z" fill="current"/>
<path d="M20.0876 10.4193C20.0876 9.54482 20.7964 8.83594 21.6709 8.83594C22.5453 8.83594 23.2542 9.54482 23.2542 10.4193V22.4193C23.2542 23.2937 22.5453 24.0026 21.6709 24.0026C20.7964 24.0026 20.0876 23.2937 20.0876 22.4193V10.4193Z" fill="current"/>
<path d="M24.3098 12.7526C24.3098 11.8782 25.0187 11.1693 25.8931 11.1693C26.7676 11.1693 27.4765 11.8782 27.4765 12.7526V22.4193C27.4765 23.2937 26.7676 24.0026 25.8931 24.0026C25.0187 24.0026 24.3098 23.2937 24.3098 22.4193V12.7526Z" fill="current"/>
<path d="M28.532 17.4193C28.532 16.5448 29.2409 15.8359 30.1153 15.8359C30.9898 15.8359 31.6987 16.5448 31.6987 17.4193V24.7526C31.6987 25.6271 30.9898 26.3359 30.1153 26.3359C29.2409 26.3359 28.532 25.6271 28.532 24.7526V17.4193Z" fill="current"/>
<path d="M10.2804 23.0479C9.94279 22.426 10.393 21.6693 11.1007 21.6693H11.3397C12.5174 21.6693 13.6162 22.2616 14.2635 23.2454L17.4487 28.0859L18.5042 21.6693H31.6987V32.7526C31.6987 34.6856 30.1317 36.2526 28.1987 36.2526H19.5311C18.2478 36.2526 17.0674 35.5503 16.4551 34.4224L10.2804 23.0479Z" fill="current"/>
</svg>
