<svg width="40" height="40" viewBox="0 0 40 40" fill="none" xmlns="http://www.w3.org/2000/svg">
<path d="M33.9154 26.7034C33.1613 24.9465 32.1129 23.3326 31.0114 21.747C29.8465 20.0672 28.1585 19.2452 25.9942 19.2885C25.0623 19.3073 24.1304 19.3806 23.1965 19.4295C22.8143 19.4484 22.4301 19.4691 21.9805 19.4916C22.0868 19.3806 22.142 19.3167 22.2033 19.2584C22.6161 18.869 23.0309 18.4778 23.4438 18.0884C24.9908 16.6306 26.5378 15.1747 28.0828 13.715C28.5304 13.2937 28.6326 12.7388 28.371 12.2328C28.1114 11.7249 27.6148 11.4691 26.9711 11.503C26.5542 11.5255 26.2517 11.7325 25.9718 11.9958C23.4887 14.3264 21.0036 16.6551 18.5227 18.9875C18.3816 19.1211 18.2611 19.1493 18.0649 19.1004C16.9347 18.8182 15.9456 18.3047 15.1057 17.5561C14.3638 16.8958 13.7753 16.1321 13.4708 15.218C13.3011 14.7045 13.013 14.2906 12.4939 14.0743C12.0893 13.9069 11.6417 13.7903 11.2023 13.732C9.2302 13.4762 8.09802 14.6443 7.92022 15.8312C7.90591 15.9309 7.79351 16.0513 7.69337 16.1039C7.25399 16.3221 6.79417 16.5046 6.36296 16.7322C6.2199 16.8093 6.05846 16.9692 6.03598 17.1084C5.82139 18.4928 6.56324 19.7474 8.35551 19.7343C8.97474 19.7305 9.59192 19.7343 10.1805 19.7343C10.3358 20.5845 10.4421 21.3971 10.6362 22.1909C11.0163 23.7427 11.6805 25.1685 12.9558 26.299C13.0212 26.3554 13.06 26.457 13.0723 26.5416C13.203 27.4878 13.3236 28.4339 13.4503 29.3782C13.5995 30.4974 13.2664 31.453 12.3284 32.1997C12.0852 32.3935 12.0729 32.6361 12.0811 32.8976C12.0913 33.3058 12.2446 33.4581 12.6799 33.4581H13.5648C13.7875 33.4299 13.8754 33.3227 13.9572 33.2211C14.2269 32.8806 14.6949 32.4386 14.9504 32.0718C15.4592 31.3401 15.9456 30.5444 15.8189 29.6604C15.774 29.3462 15.729 29.034 15.6861 28.7199C15.6166 28.2195 15.5451 27.721 15.4715 27.2207C15.4715 27.2169 15.4715 27.2113 15.4694 27.2094L15.3244 26.7316L15.8598 26.7843L16.0846 26.8069C16.2011 27.6646 16.3114 28.5223 16.4279 29.3782C16.5771 30.4974 16.0642 31.357 15.306 32.1997C15.1016 32.4273 15.0505 32.6361 15.0587 32.8976C15.0689 33.3058 15.2222 33.4581 15.6575 33.4581H16.5424C16.7651 33.4299 16.853 33.3227 16.9347 33.2211C17.2045 32.8806 17.6725 32.4386 17.928 32.0718C18.4368 31.3401 18.9232 30.5444 18.7965 29.6604C18.7515 29.3462 18.7066 29.034 18.6637 28.7199C18.5942 28.2195 18.5227 27.721 18.4491 27.2207C18.4491 27.2169 18.4491 27.2113 18.447 27.2094L18.3694 26.9555C19.2563 26.6865 20.1044 26.4137 20.9648 26.1861C22.0623 25.8946 23.172 25.6369 24.2796 25.3792C24.6475 25.2945 24.8171 25.3829 24.9458 25.6764C25.3852 26.6677 26.0453 27.4746 26.8996 28.1349C26.9547 28.5506 27.0079 28.9644 27.0651 29.3801C27.2143 30.4993 26.8812 31.4548 25.9431 32.2016C25.6999 32.3953 25.6877 32.638 25.6959 32.8995C25.7061 33.3076 25.8593 33.46 26.2946 33.46H27.1795C27.4575 33.4619 27.715 33.3302 27.8621 33.112C28.0849 32.781 28.4057 32.2994 28.5651 32.0718C29.0229 31.4135 29.4603 30.7024 29.4521 29.9218C29.7157 30.1682 29.8179 30.4805 29.8342 30.8586C29.8588 31.3721 29.7321 31.769 29.2763 32.068C28.9371 32.29 28.8512 32.5985 28.888 32.9634C28.9207 33.3114 29.0617 33.4562 29.4439 33.4581C30.1755 33.4619 30.9072 33.4638 31.6388 33.4581C32.2601 33.4544 32.632 33.1045 32.634 32.527C32.6361 31.4962 32.63 30.4654 32.6381 29.4328C32.6402 29.1337 32.5339 28.8873 32.303 28.6785C31.9085 28.3192 31.5243 27.9486 31.1238 27.595C30.4657 27.0157 30.5802 26.4927 30.7559 25.7084C30.8009 25.7629 30.8356 25.8156 30.8806 25.8551C31.3445 26.2689 31.7798 26.7185 32.2887 27.0777C32.5789 27.2828 32.9835 27.405 33.3534 27.4483C33.942 27.5141 34.1443 27.2075 33.9277 26.7034H33.9154ZM11.2309 18.1975C11.1901 18.1975 11.1492 18.19 11.1083 18.1768C10.9898 18.1354 10.908 18.0376 10.8958 17.921L10.7997 17.114C10.7977 17.0971 10.7977 17.0764 10.7997 17.0576L10.9244 15.6863C10.9346 15.5829 11.0306 15.5058 11.1451 15.5152C11.2575 15.5246 11.3413 15.6149 11.3311 15.7183L11.2064 17.0877L11.2861 17.7555L12.4878 16.7792C12.5716 16.7115 12.7024 16.7171 12.7759 16.7961C12.8515 16.8733 12.8434 16.9936 12.7575 17.0614L11.4516 18.1222C11.3883 18.173 11.3106 18.1994 11.2289 18.1994L11.2309 18.1975ZM18.3878 21.5156C18.2079 21.683 18.1487 21.8636 18.1507 22.0874C18.1548 23.3232 18.1446 24.5591 18.1589 25.7949C18.163 26.0319 18.0853 26.1335 17.838 26.1636C17.7052 26.1786 17.5764 26.2106 17.4334 26.2444C17.3312 26.2689 17.2331 26.1974 17.2331 26.1015V23.7314C17.2311 23.2894 17.086 23.1577 16.5996 23.1577C15.1752 23.1577 13.7487 23.1445 12.3222 23.1652C11.9973 23.1709 11.8542 23.0749 11.795 22.8003C11.7745 22.7063 11.7459 22.616 11.7132 22.5144C11.6785 22.4053 11.7684 22.2962 11.891 22.2962H14.4865C14.932 22.2962 15.3754 22.2849 15.8189 22.3019C16.0928 22.3131 16.293 22.2266 16.4811 22.0517C18.9518 19.7568 21.4287 17.4695 23.8995 15.1766C24.8273 14.317 25.7408 13.4461 26.6707 12.5921C26.7913 12.483 26.9793 12.3889 27.1428 12.3795C27.4493 12.3607 27.6516 12.6805 27.5208 12.9401C27.4759 13.0285 27.4003 13.1112 27.3246 13.1827C24.3471 15.9628 21.3695 18.7411 18.3857 21.5156H18.3878Z" fill="current"/>
<path d="M1.33398 10.7501C1.33398 10.3682 1.5516 10.0195 1.89477 9.85176L19.5614 1.21473C19.8386 1.07924 20.1627 1.07924 20.4399 1.21472L38.1065 9.85176C38.4497 10.0195 38.6673 10.3682 38.6673 10.7501V37.3333C38.6673 37.8856 38.2196 38.3333 37.6673 38.3333H2.33398C1.7817 38.3333 1.33398 37.8856 1.33398 37.3333V10.7501Z" stroke="current" stroke-width="1.5"/>
</svg>
