<svg width="34" height="34" viewBox="0 0 34 34" fill="none" xmlns="http://www.w3.org/2000/svg">
<path fill-rule="evenodd" clip-rule="evenodd" d="M0.666016 8.83073C0.666016 8.1864 1.12306 7.66406 1.68685 7.66406H32.3118C32.8756 7.66406 33.3327 8.1864 33.3327 8.83073V32.1641C33.3327 32.8084 32.8756 33.3307 32.3118 33.3307H1.68685C1.12306 33.3307 0.666016 32.8084 0.666016 32.1641V8.83073ZM2.70768 9.9974V30.9974H31.291V9.9974H2.70768Z" fill="current"/>
<path d="M19.041 14.0807H14.9577V18.1641H11.3848V22.8307H14.9577V26.9141H19.041V22.8307H22.6139V18.1641H19.041V14.0807Z" fill="current"/>
<path fill-rule="evenodd" clip-rule="evenodd" d="M7.81185 1.83073C7.81185 1.1864 8.26889 0.664062 8.83268 0.664062H25.166C25.7298 0.664062 26.1868 1.1864 26.1868 1.83073V8.83073C26.1868 9.47506 25.7298 9.9974 25.166 9.9974H8.83268C8.26889 9.9974 7.81185 9.47506 7.81185 8.83073V1.83073ZM9.85351 2.9974V7.66406H24.1452V2.9974H9.85351Z" fill="current"/>
</svg>
