<svg width="36" height="40" viewBox="0 0 36 40" fill="none" xmlns="http://www.w3.org/2000/svg">
<path d="M11.8585 7.65776C11.8257 7.58411 11.8816 7.51025 11.9622 7.51025H24.0405C24.1212 7.51025 24.177 7.58411 24.1442 7.65776C23.9062 8.19129 22.7519 9.98942 18.0014 9.98942C13.2508 9.98942 12.0965 8.19129 11.8585 7.65776Z" fill="#FCFCFD"/>
<path fill-rule="evenodd" clip-rule="evenodd" d="M10.8727 2.14476C10.6485 2.38521 10.6223 2.72714 10.7262 3.03902L11.7752 6.18591C11.7921 6.23653 11.8394 6.27067 11.8928 6.27067H24.1099C24.1633 6.27067 24.2107 6.23653 24.2275 6.18591L25.2765 3.03902C25.3805 2.72714 25.3542 2.38521 25.13 2.14476C24.4741 1.44126 22.6062 0.0727539 18.0014 0.0727539C13.3965 0.0727539 11.5286 1.44126 10.8727 2.14476ZM17.3816 2.55192C17.0393 2.55192 16.7618 2.82941 16.7618 3.17171C16.7618 3.51401 17.0393 3.7915 17.3816 3.7915H18.6211C18.9634 3.7915 19.2409 3.51401 19.2409 3.17171C19.2409 2.82941 18.9634 2.55192 18.6211 2.55192H17.3816Z" fill="#FCFCFD"/>
<path d="M11.8034 8.75044V12.4686C11.8034 15.8916 14.5783 18.6665 18.0014 18.6665C21.4244 18.6665 24.1993 15.8916 24.1993 12.4686V8.75044C23.0685 10.2555 21.2684 11.229 19.2409 11.229H16.7618C14.7343 11.229 12.9342 10.2555 11.8034 8.75044Z" fill="#FCFCFD"/>
<path d="M0.027389 32.6561C0.027389 26.2057 4.59532 20.8223 10.6728 19.5641L17.6046 25.3406C17.7195 25.4363 17.86 25.484 18.0004 25.4842H15.5222C15.1799 25.4842 14.9024 25.7617 14.9024 26.104V33.5415C14.9024 33.8838 15.1799 34.1613 15.5222 34.1613H20.4805C20.8228 34.1613 21.1003 33.8838 21.1003 33.5415V26.104C21.1003 25.7617 20.8228 25.4842 20.4805 25.4842H18.0022C18.1515 25.484 18.3006 25.43 18.4183 25.323L24.852 19.4742C31.1663 20.5425 35.9753 26.0377 35.9753 32.6561L35.9753 34.8665C35.9755 35.375 35.9757 35.9249 35.9133 36.389C35.8402 36.9327 35.6522 37.6274 35.0676 38.212C34.4831 38.7965 33.7884 38.9846 33.2447 39.0577C32.7806 39.1201 32.2307 39.1198 31.7222 39.1196H4.28054C3.77204 39.1198 3.22214 39.1201 2.75801 39.0577C2.21427 38.9846 1.51964 38.7965 0.935053 38.212C0.350465 37.6274 0.162457 36.9327 0.0893526 36.389C0.0269502 35.9249 0.0271666 35.375 0.0273665 34.8665L0.027389 32.6561Z" fill="#FCFCFD"/>
<path d="M22.6055 19.2863C22.8052 19.2863 23.004 19.2907 23.2016 19.2993L17.9837 24.0429L12.3264 19.3285C12.6797 19.3006 13.0368 19.2863 13.3972 19.2863H22.6055Z" fill="#FCFCFD"/>
</svg>
