<svg width="34" height="41" viewBox="0 0 34 41" fill="none" xmlns="http://www.w3.org/2000/svg">
<path fill-rule="evenodd" clip-rule="evenodd" d="M11.6138 9.05652C12.141 8.6429 12.8666 8.59139 13.4469 8.92641L30.8125 18.9525C31.3928 19.2875 31.711 19.9417 31.6164 20.605L29.9922 20.3733C31.6164 20.605 31.6164 20.605 31.6164 20.605L31.6158 20.6088L31.615 20.6146L31.6124 20.632L31.6035 20.6896C31.5959 20.7381 31.5848 20.8063 31.5698 20.893C31.5397 21.0666 31.494 21.3146 31.4291 21.6271C31.2994 22.2517 31.0926 23.1362 30.781 24.2004C30.1591 26.3244 29.1119 29.1896 27.4074 32.142C26.178 34.2714 24.8177 36.0803 23.5839 37.5219C23.5198 37.5967 23.4563 37.6712 23.3932 37.7451C22.0939 39.2677 20.9788 40.5746 18.9572 40.9176C17.8728 41.1016 16.9177 40.9197 15.9617 40.5367C15.0981 40.1908 14.1479 39.6421 13.0739 39.0219L4.93564 34.3233C3.86149 33.7033 2.91118 33.1547 2.17981 32.5798C1.37013 31.9433 0.735057 31.2071 0.352194 30.176C-0.361568 28.2537 0.21264 26.6345 0.881676 24.7479C0.914138 24.6564 0.946822 24.5642 0.979594 24.4714C1.6111 22.6819 2.49761 20.5995 3.72703 18.4701C5.43156 15.5177 7.38936 13.1783 8.91779 11.5777C9.68365 10.7757 10.3463 10.1544 10.8223 9.72976C11.0605 9.5173 11.2524 9.35369 11.3877 9.2409C11.4553 9.1845 11.5088 9.14077 11.5469 9.10996L11.5924 9.07347L11.6062 9.06254L11.6108 9.05892L11.6138 9.05652C11.6138 9.05652 11.6138 9.05652 12.6266 10.3472L11.6138 9.05652ZM12.8154 12.3507C12.4138 12.7165 11.8889 13.2175 11.2909 13.8438C9.8913 15.3094 8.10973 17.4415 6.56867 20.1107C5.45887 22.0329 4.65192 23.9252 4.07381 25.5633C3.26166 27.8647 3.16921 28.3362 3.42823 29.0338C3.54908 29.3592 3.74104 29.6334 4.20766 30.0002C4.73244 30.4127 5.4753 30.846 6.66537 31.5331L14.6254 36.1288C15.8154 36.8159 16.5621 37.2426 17.1818 37.4908C17.7327 37.7114 18.0661 37.7406 18.4084 37.6826C19.142 37.5581 19.5041 37.2423 21.091 35.3882C22.2206 34.0685 23.456 32.4235 24.5658 30.5013C26.1068 27.8321 27.0625 25.2232 27.632 23.2783C27.8753 22.4473 28.0468 21.7422 28.1628 21.2115L12.8154 12.3507Z" fill="#FCFCFD"/>
<path fill-rule="evenodd" clip-rule="evenodd" d="M20.7964 23.9054C21.2495 23.1207 22.2529 22.8518 23.0376 23.3049L27.7737 26.0393C28.5584 26.4923 28.8272 27.4957 28.3742 28.2804C27.9211 29.0651 26.9177 29.3339 26.133 28.8809L21.397 26.1465C20.6123 25.6935 20.3434 24.6901 20.7964 23.9054ZM16.4214 31.4831C16.8745 30.6984 17.8779 30.4296 18.6626 30.8826L23.3987 33.617C24.1834 34.07 24.4522 35.0734 23.9992 35.8581C23.5461 36.6428 22.5427 36.9117 21.758 36.4586L17.022 33.7243C16.2373 33.2712 15.9684 32.2678 16.4214 31.4831Z" fill="#FCFCFD"/>
<path d="M15.9853 7.23519L31.0193 15.9151C31.7763 15.1174 31.811 14.2704 29.2711 11.8624C28.6683 11.291 28.0293 10.5042 27.9646 9.76389C27.9074 9.10843 27.8618 9.3563 29.0142 7.96919C30.1666 6.58208 30.2945 4.79616 29.0919 3.56752C28.8612 3.33179 28.8923 3.32045 28.4242 3.05026C27.956 2.78007 27.9337 2.78915 27.5926 2.70188C25.927 2.27575 24.4833 3.30083 23.8195 4.97002C23.1557 6.63922 23.3862 6.49812 22.79 6.77635C22.1374 7.08082 21.0967 7.08497 20.2701 6.83963C17.9544 6.1524 16.5378 5.37019 15.9853 7.23519Z" fill="#FCFCFD"/>
<path fill-rule="evenodd" clip-rule="evenodd" d="M30.6044 1.77449C30.6221 1.79334 30.6353 1.80743 30.6663 1.8391C32.6031 3.8178 32.223 6.57715 30.6781 8.43677C30.4222 8.7448 30.2208 8.97791 30.0725 9.14965C30.0665 9.15661 30.0606 9.16347 30.0547 9.17023C30.0813 9.22341 30.1205 9.29272 30.1783 9.37839C30.3336 9.60868 30.5551 9.85707 30.8018 10.0909C32.071 11.2942 32.974 12.3462 33.3321 13.3702C33.5362 13.9537 33.5807 14.5702 33.3937 15.1824C33.2184 15.7562 32.884 16.1764 32.6113 16.4636C32.0892 17.0138 31.2579 17.1343 30.601 16.7551L15.567 8.07518C14.91 7.69589 14.5988 6.91567 14.8142 6.18834C15.0097 5.52842 15.3548 4.84777 16.0035 4.37918C16.6681 3.89915 17.3982 3.8232 17.9795 3.86263C18.5345 3.90027 19.0981 4.05325 19.5769 4.19764C19.7985 4.26445 20.0309 4.33877 20.2586 4.41156C20.2875 4.4208 20.3163 4.43001 20.345 4.43918C20.6055 4.52239 20.8669 4.60529 21.1388 4.68598C21.5907 4.82012 22.0607 4.80961 22.3289 4.75788C22.4121 4.52649 22.5271 4.20985 22.6969 3.78292C23.5613 1.6093 25.69 -0.162007 28.4012 0.531615C28.4145 0.535039 28.4306 0.53899 28.4488 0.543499C28.5636 0.571827 28.7676 0.622158 28.9685 0.701972C29.2012 0.794447 29.4206 0.918263 29.6462 1.04849C29.8747 1.18038 30.0972 1.31277 30.2971 1.47875C30.4054 1.56871 30.4865 1.65078 30.5424 1.70909C30.5734 1.74143 30.5903 1.75947 30.6044 1.77449ZM28.1961 4.00339C28.1609 3.98124 28.1033 3.94655 28.006 3.89037C27.8936 3.82552 27.8271 3.78851 27.7833 3.76549C27.775 3.76112 27.7682 3.75766 27.7629 3.75499C27.7506 3.7517 27.7336 3.74734 27.7072 3.74065C27.6994 3.73869 27.6905 3.73644 27.6806 3.73396C27.6541 3.72729 27.6212 3.719 27.5879 3.71048C26.9678 3.55185 26.2091 3.83069 25.7459 4.99546C25.5899 5.38788 25.4869 5.67233 25.4086 5.89064C25.4018 5.90955 25.3947 5.92931 25.3874 5.94977C25.326 6.1219 25.2468 6.34389 25.1606 6.5236C25.0241 6.808 24.8178 7.1128 24.4661 7.3646C24.2598 7.51229 24.0096 7.62593 23.9129 7.66981C23.9017 7.67491 23.8925 7.67907 23.8857 7.68223C23.351 7.93167 22.7362 8.05011 22.1225 8.07119L27.3923 11.1137C27.0941 10.651 26.7942 10.0358 26.7321 9.32586C26.7317 9.32051 26.7307 9.31143 26.7295 9.29964C26.7203 9.20893 26.6929 8.94188 26.707 8.71836C26.7331 8.30189 26.8714 7.95991 27.0616 7.66688C27.1929 7.46453 27.3682 7.26121 27.5005 7.1077L27.5151 7.09084C27.5395 7.06248 27.5649 7.03312 27.5913 7.00255C27.7391 6.83134 27.9197 6.62218 28.1542 6.33995C28.914 5.42535 28.7898 4.61285 28.3214 4.13429C28.2836 4.09572 28.252 4.06247 28.2266 4.03562C28.2151 4.02348 28.2066 4.01449 28.1997 4.00719L28.1961 4.00339Z" fill="#FCFCFD"/>
</svg>
