<svg width="36" height="34" viewBox="0 0 36 34" fill="none" xmlns="http://www.w3.org/2000/svg">
<path d="M18.9492 22.6593C21.6663 22.6593 26.557 19.6951 26.557 19.6951L11.8848 7.83798C11.8848 7.83798 12.4283 15.5451 13.5151 17.9165C14.6019 20.2879 16.2322 22.6593 18.9492 22.6593Z" fill="current"/>
<path fill-rule="evenodd" clip-rule="evenodd" d="M10.8012 7.92892L11.8848 7.83798C10.8012 7.92892 10.8012 7.92878 10.8012 7.92892L10.803 7.95355L10.808 8.02109C10.8123 8.07989 10.8188 8.16572 10.8275 8.27539C10.8448 8.49469 10.8706 8.80955 10.905 9.1944C10.9738 9.9633 11.0771 11.0153 11.2151 12.1447C11.3528 13.2714 11.5268 14.4893 11.7383 15.5856C11.9443 16.653 12.2044 17.708 12.543 18.4468C13.6461 20.8536 15.5463 23.8451 18.9492 23.8451C20.5604 23.8451 22.6531 23.0009 24.2054 22.2646C25.0117 21.8821 25.7283 21.5007 26.243 21.2152C26.5008 21.0722 26.709 20.9526 26.8538 20.8682C26.9262 20.826 26.9828 20.7925 27.0219 20.7693L27.0672 20.7422L27.0795 20.7348L27.0831 20.7326C27.0832 20.7326 27.0849 20.7316 26.557 19.6951L27.0831 20.7326L28.5595 19.8378L10.6186 5.33912L10.8012 7.92892ZM24.5011 19.5092C24.1504 19.6929 23.7568 19.8915 23.3387 20.0898C21.7663 20.8357 20.0551 21.4736 18.9492 21.4736C16.9181 21.4736 15.5578 19.7223 14.4872 17.3862C14.2823 16.9393 14.0669 16.1416 13.8654 15.097C13.6694 14.0813 13.5037 12.9277 13.3697 11.8313C13.308 11.3261 13.2533 10.8361 13.2057 10.381L24.5011 19.5092Z" fill="current"/>
<path fill-rule="evenodd" clip-rule="evenodd" d="M27.6439 26.2165C28.8444 26.2165 29.8175 27.2782 29.8175 28.5879C29.8175 29.8976 28.8444 30.9593 27.6439 30.9593C26.4434 30.9593 25.4702 29.8976 25.4702 28.5879C25.4702 27.2782 26.4434 26.2165 27.6439 26.2165ZM31.9912 28.5879C31.9912 25.9685 30.0448 23.8451 27.6439 23.8451C25.2429 23.8451 23.2966 25.9685 23.2966 28.5879C23.2966 31.2073 25.2429 33.3307 27.6439 33.3307C30.0448 33.3307 31.9912 31.2073 31.9912 28.5879Z" fill="current"/>
<path fill-rule="evenodd" clip-rule="evenodd" d="M8.08094 26.2165C9.28142 26.2165 10.2546 27.2782 10.2546 28.5879C10.2546 29.8976 9.28142 30.9593 8.08094 30.9593C6.88046 30.9593 5.90728 29.8976 5.90728 28.5879C5.90728 27.2782 6.88046 26.2165 8.08094 26.2165ZM12.4283 28.5879C12.4283 25.9685 10.4819 23.8451 8.08094 23.8451C5.67998 23.8451 3.73362 25.9685 3.73362 28.5879C3.73362 31.2073 5.67998 33.3307 8.08094 33.3307C10.4819 33.3307 12.4283 31.2073 12.4283 28.5879Z" fill="current"/>
<path fill-rule="evenodd" clip-rule="evenodd" d="M13.1416 18.4656L9.33769 24.987L11.1715 26.2602L14.9754 19.7388L13.1416 18.4656Z" fill="current"/>
<path d="M15.6896 4.8737C15.6896 6.83825 17.1493 8.43083 18.9501 8.43083C20.7508 8.43083 22.2105 6.83825 22.2105 4.8737C22.2105 2.90915 20.7508 1.31657 18.9501 1.31657C17.1493 1.31657 15.6896 2.90915 15.6896 4.8737Z" fill="current"/>
<path d="M28.3028 12.2345L25.4847 14.3807L32.8966 20.3965C33.619 20.9828 34.6402 20.8192 35.1776 20.0311L-nan -nanCnan nan nan nan nan nanLnan nanCnan nan nan nan -nan -nanL35.1776 20.0311C35.7151 19.243 35.5651 18.1289 34.8427 17.5426L28.3028 12.2345Z" fill="current"/>
<path fill-rule="evenodd" clip-rule="evenodd" d="M3.46947 3.9037C4.53056 2.74608 6.25091 2.74608 7.312 3.9037C7.34015 3.93441 7.36983 3.96341 7.4009 3.99057L28.7292 22.6356L28.7293 25.6236C28.7293 26.2785 29.2158 26.8093 29.8161 26.8093C30.4163 26.8093 30.9029 26.2785 30.9029 25.6236L30.9029 22.0663C30.9029 21.7065 30.7531 21.3661 30.4957 21.141L8.80388 2.17824C6.89059 0.143261 3.82744 0.159465 1.93246 2.22685C0.0225131 4.31057 0.0225118 7.68894 1.93246 9.77266C2.3569 10.2357 3.04504 10.2357 3.46947 9.77266C3.89391 9.30961 3.89391 8.55886 3.46947 8.09581C2.40839 6.93819 2.40839 5.06132 3.46947 3.9037Z" fill="current"/>
</svg>
