<svg width="32" height="32" viewBox="0 0 32 32" fill="none" xmlns="http://www.w3.org/2000/svg">
<path d="M16.0007 1.00781C10.1207 1.00781 5.33398 5.79448 5.33398 11.6745C5.33398 19.1011 14.614 29.4611 15.014 29.9011L16.0007 30.9945L16.9873 29.9011C17.3873 29.4611 26.6673 19.1011 26.6673 11.6745C26.6673 5.79448 21.8806 1.00781 16.0007 1.00781ZM16.0007 26.9678C13.094 23.4878 8.00065 16.3945 8.00065 11.6745C8.00065 7.26115 11.5873 3.67448 16.0007 3.67448C20.414 3.67448 24.0007 7.26115 24.0007 11.6745C24.0007 16.7811 18.334 24.1545 16.0007 26.9678ZM13.9607 14.5678L11.614 12.2078L9.72065 14.1011L13.9607 18.3411L21.974 10.3278L20.094 8.43448L13.9607 14.5678Z" fill="#529B40"/>
</svg>
