<svg width="48" height="49" viewBox="0 0 48 49" fill="none" xmlns="http://www.w3.org/2000/svg">
<rect x="1" y="1.4375" width="46" height="46" rx="23" fill="white"/>
<rect x="1" y="1.4375" width="46" height="46" rx="23" stroke="#8E9398" stroke-width="2"/>
<path d="M34.2143 13.9927C30.6943 11.5927 26.3476 12.7127 24.0009 15.4594C21.6543 12.7127 17.3076 11.5794 13.7876 13.9927C11.9209 15.2727 10.7476 17.4327 10.6676 19.7127C10.4809 24.8861 15.0676 29.0327 22.0676 35.3927L22.2009 35.5127C23.2143 36.4327 24.7743 36.4327 25.7876 35.4994L25.9343 35.3661C32.9343 29.0194 37.5076 24.8727 37.3343 19.6994C37.2543 17.4327 36.0809 15.2727 34.2143 13.9927ZM24.1343 33.4061L24.0009 33.5394L23.8676 33.4061C17.5209 27.6594 13.3343 23.8594 13.3343 20.0061C13.3343 17.3394 15.3343 15.3394 18.0009 15.3394C20.0543 15.3394 22.0543 16.6594 22.7609 18.4861H25.2543C25.9476 16.6594 27.9476 15.3394 30.0009 15.3394C32.6676 15.3394 34.6676 17.3394 34.6676 20.0061C34.6676 23.8594 30.4809 27.6594 24.1343 33.4061Z" fill="#8E9398"/>
</svg>
