<svg width="48" height="49" viewBox="0 0 48 49" fill="none" xmlns="http://www.w3.org/2000/svg">
<rect x="1" y="1.4375" width="46" height="46" rx="23" fill="white"/>
<rect x="1" y="1.4375" width="46" height="46" rx="23" stroke="#8E9398" stroke-width="2"/>
<path d="M32 29.9296C30.9867 29.9296 30.08 30.3296 29.3867 30.9563L19.88 25.4229C19.9467 25.1163 20 24.8096 20 24.4896C20 24.1696 19.9467 23.8629 19.88 23.5563L29.28 18.0763C30 18.7429 30.9467 19.1562 32 19.1562C34.2133 19.1562 36 17.3696 36 15.1562C36 12.9429 34.2133 11.1562 32 11.1562C29.7867 11.1562 28 12.9429 28 15.1562C28 15.4763 28.0533 15.7829 28.12 16.0896L18.72 21.5696C18 20.9029 17.0533 20.4896 16 20.4896C13.7867 20.4896 12 22.2763 12 24.4896C12 26.7029 13.7867 28.4896 16 28.4896C17.0533 28.4896 18 28.0763 18.72 27.4096L28.2133 32.9563C28.1467 33.2363 28.1067 33.5296 28.1067 33.8229C28.1067 35.9696 29.8533 37.7163 32 37.7163C34.1467 37.7163 35.8933 35.9696 35.8933 33.8229C35.8933 31.6763 34.1467 29.9296 32 29.9296ZM32 13.8229C32.7333 13.8229 33.3333 14.4229 33.3333 15.1562C33.3333 15.8896 32.7333 16.4896 32 16.4896C31.2667 16.4896 30.6667 15.8896 30.6667 15.1562C30.6667 14.4229 31.2667 13.8229 32 13.8229ZM16 25.8229C15.2667 25.8229 14.6667 25.2229 14.6667 24.4896C14.6667 23.7563 15.2667 23.1562 16 23.1562C16.7333 23.1562 17.3333 23.7563 17.3333 24.4896C17.3333 25.2229 16.7333 25.8229 16 25.8229ZM32 35.1829C31.2667 35.1829 30.6667 34.5829 30.6667 33.8496C30.6667 33.1163 31.2667 32.5163 32 32.5163C32.7333 32.5163 33.3333 33.1163 33.3333 33.8496C33.3333 34.5829 32.7333 35.1829 32 35.1829Z" fill="#8E9398"/>
</svg>
