<svg width="36" height="36" viewBox="0 0 36 36" fill="none" xmlns="http://www.w3.org/2000/svg">
<path d="M25.9412 22.9466H24.3612L23.8012 22.4066C26.2012 19.6066 27.4412 15.7866 26.7612 11.7266C25.8212 6.16656 21.1812 1.72656 15.5812 1.04656C7.1212 0.0065636 0.0211998 7.12656 1.0412 15.5866C1.7212 21.1866 6.1612 25.8266 11.7212 26.7666C15.7812 27.4466 19.6012 26.2066 22.4012 23.8066L22.9412 24.3666V25.9466L31.4612 34.4466C32.2812 35.2666 33.6012 35.2666 34.4212 34.4466L34.4412 34.4266C35.2612 33.6066 35.2612 32.2866 34.4412 31.4666L25.9412 22.9466ZM13.9412 22.9466C8.9612 22.9466 4.9412 18.9266 4.9412 13.9466C4.9412 8.96657 8.9612 4.94656 13.9412 4.94656C18.9212 4.94656 22.9412 8.96657 22.9412 13.9466C22.9412 18.9266 18.9212 22.9466 13.9412 22.9466ZM13.9412 8.94656C13.3812 8.94656 12.9412 9.38656 12.9412 9.94656V12.9466H9.9412C9.3812 12.9466 8.9412 13.3866 8.9412 13.9466C8.9412 14.5066 9.3812 14.9466 9.9412 14.9466H12.9412V17.9466C12.9412 18.5066 13.3812 18.9466 13.9412 18.9466C14.5012 18.9466 14.9412 18.5066 14.9412 17.9466V14.9466H17.9412C18.5012 14.9466 18.9412 14.5066 18.9412 13.9466C18.9412 13.3866 18.5012 12.9466 17.9412 12.9466H14.9412V9.94656C14.9412 9.38656 14.5012 8.94656 13.9412 8.94656Z" fill="#FCFCFD"/>
</svg>
