<svg width="25" height="25" viewBox="0 0 32 32" fill="none" xmlns="http://www.w3.org/2000/svg">
<path d="M21.0065 19.0104H19.9532L19.5798 18.6504C20.8865 17.1304 21.6732 15.1571 21.6732 13.0104C21.6732 8.22375 17.7932 4.34375 13.0065 4.34375C8.21984 4.34375 4.33984 8.22375 4.33984 13.0104C4.33984 17.7971 8.21984 21.6771 13.0065 21.6771C15.1532 21.6771 17.1265 20.8904 18.6465 19.5838L19.0065 19.9571V21.0104L25.6732 27.6637L27.6598 25.6771L21.0065 19.0104ZM13.0065 19.0104C9.68651 19.0104 7.00651 16.3304 7.00651 13.0104C7.00651 9.69042 9.68651 7.01042 13.0065 7.01042C16.3265 7.01042 19.0065 9.69042 19.0065 13.0104C19.0065 16.3304 16.3265 19.0104 13.0065 19.0104Z" fill="#529B40"/>
</svg>
