<svg width="88" height="72" viewBox="0 0 88 72" fill="none" xmlns="http://www.w3.org/2000/svg">
<path fill-rule="evenodd" clip-rule="evenodd" d="M52.6611 16.2581C41.4828 16.2581 32.4211 25.3464 32.4211 36.5574C32.4211 47.7684 41.4828 56.8568 52.6611 56.8568C58.101 56.8568 63.0397 54.7044 66.6766 51.2024C66.7613 51.0945 66.8533 50.9904 66.9526 50.8909C67.0518 50.7913 67.1556 50.6991 67.2632 50.6141C70.7549 46.9665 72.9011 42.0133 72.9011 36.5574C72.9011 25.3464 63.8393 16.2581 52.6611 16.2581ZM74.1851 53.2176C77.7358 48.6101 79.8484 42.8312 79.8484 36.5574C79.8484 21.4982 67.6762 9.29032 52.6611 9.29032C37.6459 9.29032 25.4737 21.4982 25.4737 36.5574C25.4737 51.6166 37.6459 63.8245 52.6611 63.8245C58.9165 63.8245 64.6785 61.7057 69.2725 58.1445L82.07 70.9796C83.4266 72.3401 85.626 72.3401 86.9826 70.9796C88.3391 69.6191 88.3391 67.4132 86.9826 66.0527L74.1851 53.2176Z" fill="#B5B9BD"/>
<path fill-rule="evenodd" clip-rule="evenodd" d="M8.10526 0C3.62885 0 0 3.63949 0 8.12903V54.5806C0 59.0702 3.62885 62.7097 8.10526 62.7097H77.5789C82.0554 62.7097 85.6842 59.0702 85.6842 54.5806V8.12903C85.6842 3.63949 82.0554 0 77.5789 0H8.10526ZM6.94737 8.12903C6.94737 7.48767 7.46577 6.96774 8.10526 6.96774H77.5789C78.2184 6.96774 78.7368 7.48767 78.7368 8.12903V54.5806C78.7368 55.222 78.2184 55.7419 77.5789 55.7419H66.6795C62.7528 58.633 57.9057 60.3406 52.6611 60.3406C47.4164 60.3406 42.5693 58.633 38.6426 55.7419H8.10526C7.46578 55.7419 6.94737 55.222 6.94737 54.5806V8.12903Z" fill="#B5B9BD"/>
<path fill-rule="evenodd" clip-rule="evenodd" d="M41.5437 25.4075C42.9003 24.047 45.0997 24.047 46.4563 25.4075L53.2632 32.2344L60.07 25.4075C61.4266 24.047 63.626 24.047 64.9826 25.4075C66.3391 26.768 66.3391 28.9739 64.9826 30.3344L58.1757 37.1613L64.9826 43.9881C66.3391 45.3487 66.3391 47.5545 64.9826 48.9151C63.626 50.2756 61.4266 50.2756 60.07 48.9151L53.2632 42.0882L46.4563 48.9151C45.0997 50.2756 42.9003 50.2756 41.5437 48.9151C40.1872 47.5545 40.1872 45.3487 41.5437 43.9881L48.3506 37.1613L41.5437 30.3344C40.1872 28.9739 40.1872 26.768 41.5437 25.4075Z" fill="#B5B9BD"/>
<path fill-rule="evenodd" clip-rule="evenodd" d="M11.5789 19.7419C11.5789 17.8178 13.1342 16.2581 15.0526 16.2581H33.5789C35.4974 16.2581 37.0526 17.8178 37.0526 19.7419C37.0526 21.666 35.4974 23.2258 33.5789 23.2258H15.0526C13.1342 23.2258 11.5789 21.666 11.5789 19.7419Z" fill="#B5B9BD"/>
<path fill-rule="evenodd" clip-rule="evenodd" d="M11.5789 33.6774C11.5789 31.7533 13.1342 30.1935 15.0526 30.1935H19.6842C21.6027 30.1935 23.1579 31.7533 23.1579 33.6774C23.1579 35.6015 21.6027 37.1613 19.6842 37.1613H15.0526C13.1342 37.1613 11.5789 35.6015 11.5789 33.6774Z" fill="#B5B9BD"/>
</svg>
