<svg width="384" height="310" viewBox="0 0 384 310" fill="none" xmlns="http://www.w3.org/2000/svg">
<rect width="384" height="310" rx="8" fill="#F3F5F7"/>
<path fill-rule="evenodd" clip-rule="evenodd" d="M184.615 121.308C183.341 121.308 182.308 122.341 182.308 123.615C182.308 124.89 183.341 125.923 184.615 125.923C185.89 125.923 186.923 124.89 186.923 123.615C186.923 122.341 185.89 121.308 184.615 121.308ZM179.538 123.615C179.538 120.811 181.811 118.538 184.615 118.538C187.419 118.538 189.692 120.811 189.692 123.615C189.692 126.419 187.419 128.692 184.615 128.692C181.811 128.692 179.538 126.419 179.538 123.615Z" fill="#B5B9BD"/>
<path fill-rule="evenodd" clip-rule="evenodd" d="M174 118.077C174 115.273 176.273 113 179.077 113H204.923C207.727 113 210 115.273 210 118.077V143.923C210 146.727 207.727 149 204.923 149H179.077C176.273 149 174 146.727 174 143.923V118.077ZM179.077 115.769C177.802 115.769 176.769 116.802 176.769 118.077V138.732L183.635 131.867C184.175 131.326 185.052 131.326 185.593 131.867L189.74 136.014L198.278 124.631C198.525 124.3 198.908 124.098 199.32 124.078C199.733 124.059 200.132 124.225 200.41 124.53L207.231 132.033V118.077C207.231 116.802 206.198 115.769 204.923 115.769H179.077ZM188.062 138.252L184.614 134.804L176.769 142.649V143.923C176.769 145.198 177.802 146.231 179.077 146.231H182.078L188.062 138.252ZM204.923 146.231H185.539L199.488 127.633L207.231 136.15V143.923C207.231 145.198 206.198 146.231 204.923 146.231Z" fill="#B5B9BD"/>
<path d="M102.632 178.032H105.152V200.016H102.632V178.032ZM93.488 179.64C94.576 179.64 95.544 179.96 96.392 180.6C97.256 181.24 97.928 182.136 98.408 183.288C98.888 184.44 99.128 185.8 99.128 187.368C99.128 188.952 98.888 190.328 98.408 191.496C97.928 192.648 97.256 193.544 96.392 194.184C95.544 194.808 94.576 195.12 93.488 195.12C92.4 195.12 91.424 194.808 90.56 194.184C89.712 193.544 89.04 192.648 88.544 191.496C88.064 190.328 87.824 188.952 87.824 187.368C87.824 185.8 88.064 184.44 88.544 183.288C89.04 182.136 89.712 181.24 90.56 180.6C91.424 179.96 92.4 179.64 93.488 179.64ZM93.488 181.92C92.848 181.92 92.28 182.136 91.784 182.568C91.304 183 90.928 183.624 90.656 184.44C90.384 185.256 90.248 186.232 90.248 187.368C90.248 188.52 90.384 189.504 90.656 190.32C90.928 191.136 91.304 191.768 91.784 192.216C92.28 192.648 92.848 192.864 93.488 192.864C94.128 192.864 94.688 192.648 95.168 192.216C95.648 191.768 96.024 191.136 96.296 190.32C96.568 189.504 96.704 188.52 96.704 187.368C96.704 186.232 96.568 185.256 96.296 184.44C96.024 183.624 95.648 183 95.168 182.568C94.688 182.136 94.128 181.92 93.488 181.92ZM110.358 180.096H120.63V194.592H110.358V180.096ZM118.182 182.112H112.83V192.6H118.182V182.112ZM124.71 178.032H127.23V200.016H124.71V178.032ZM136.828 181.32H138.844V184.392C138.844 185.608 138.7 186.8 138.412 187.968C138.124 189.12 137.7 190.208 137.14 191.232C136.596 192.256 135.94 193.16 135.172 193.944C134.404 194.728 133.556 195.352 132.628 195.816L131.164 193.824C132.012 193.424 132.78 192.888 133.468 192.216C134.172 191.544 134.772 190.784 135.268 189.936C135.764 189.072 136.148 188.168 136.42 187.224C136.692 186.28 136.828 185.336 136.828 184.392V181.32ZM137.356 181.32H139.372V184.392C139.372 185.304 139.508 186.208 139.78 187.104C140.052 188 140.436 188.848 140.932 189.648C141.428 190.448 142.02 191.16 142.708 191.784C143.396 192.408 144.172 192.904 145.036 193.272L143.644 195.264C142.684 194.832 141.82 194.248 141.052 193.512C140.284 192.776 139.62 191.928 139.06 190.968C138.516 189.992 138.092 188.952 137.788 187.848C137.5 186.728 137.356 185.576 137.356 184.392V181.32ZM131.956 180.216H144.244V182.304H131.956V180.216ZM146.788 178.056H149.308V199.992H146.788V178.056ZM166.961 180.216H169.193V180.84C169.193 181.736 168.985 182.576 168.569 183.36C168.153 184.128 167.569 184.824 166.817 185.448C166.065 186.056 165.169 186.568 164.129 186.984C163.089 187.384 161.945 187.672 160.697 187.848L159.785 185.832C160.633 185.736 161.425 185.576 162.161 185.352C162.897 185.112 163.553 184.832 164.129 184.512C164.721 184.192 165.225 183.84 165.641 183.456C166.073 183.056 166.401 182.64 166.625 182.208C166.849 181.76 166.961 181.304 166.961 180.84V180.216ZM168.089 180.216H170.321V180.84C170.321 181.288 170.433 181.736 170.657 182.184C170.881 182.632 171.201 183.056 171.617 183.456C172.033 183.84 172.537 184.192 173.129 184.512C173.721 184.832 174.385 185.112 175.121 185.352C175.857 185.576 176.649 185.736 177.497 185.832L176.561 187.848C175.329 187.672 174.193 187.384 173.153 186.984C172.129 186.568 171.233 186.056 170.465 185.448C169.713 184.824 169.129 184.128 168.713 183.36C168.297 182.576 168.089 181.736 168.089 180.84V180.216ZM160.529 179.064H176.753V181.08H160.529V179.064ZM158.705 189.168H178.577V191.184H158.705V189.168ZM167.585 190.44H170.105V195.312H167.585V190.44ZM161.129 197.496H176.369V199.536H161.129V197.496ZM161.129 193.272H163.649V198.24H161.129V193.272ZM196.335 178.032H198.855V200.016H196.335V178.032ZM181.983 179.832H184.479V185.424H190.023V179.832H192.519V194.808H181.983V179.832ZM184.479 187.392V192.768H190.023V187.392H184.479ZM211.525 189.024H214.045V192.888H211.525V189.024ZM202.885 188.184H222.709V190.2H202.885V188.184ZM212.749 192.144C215.117 192.144 216.965 192.488 218.293 193.176C219.637 193.848 220.309 194.808 220.309 196.056C220.309 197.304 219.637 198.264 218.293 198.936C216.965 199.608 215.117 199.944 212.749 199.944C210.397 199.944 208.549 199.608 207.205 198.936C205.877 198.264 205.213 197.304 205.213 196.056C205.213 194.808 205.877 193.848 207.205 193.176C208.549 192.488 210.397 192.144 212.749 192.144ZM212.749 194.088C211.693 194.088 210.789 194.168 210.037 194.328C209.285 194.472 208.709 194.688 208.309 194.976C207.925 195.264 207.733 195.624 207.733 196.056C207.733 196.488 207.925 196.856 208.309 197.16C208.709 197.448 209.285 197.664 210.037 197.808C210.789 197.952 211.693 198.024 212.749 198.024C213.837 198.024 214.749 197.952 215.485 197.808C216.237 197.664 216.805 197.448 217.189 197.16C217.573 196.856 217.765 196.488 217.765 196.056C217.765 195.624 217.573 195.264 217.189 194.976C216.805 194.688 216.237 194.472 215.485 194.328C214.749 194.168 213.837 194.088 212.749 194.088ZM211.117 179.976H213.349V180.576C213.349 181.264 213.213 181.912 212.941 182.52C212.669 183.112 212.277 183.664 211.765 184.176C211.253 184.672 210.645 185.12 209.941 185.52C209.237 185.92 208.445 186.248 207.565 186.504C206.701 186.76 205.765 186.944 204.757 187.056L203.869 185.088C204.733 185.008 205.533 184.872 206.269 184.68C207.021 184.472 207.693 184.224 208.285 183.936C208.877 183.648 209.381 183.328 209.797 182.976C210.213 182.608 210.533 182.224 210.757 181.824C210.997 181.408 211.117 180.992 211.117 180.576V179.976ZM212.245 179.976H214.477V180.576C214.477 181.008 214.589 181.432 214.813 181.848C215.037 182.248 215.357 182.624 215.773 182.976C216.189 183.328 216.693 183.648 217.285 183.936C217.893 184.224 218.565 184.472 219.301 184.68C220.053 184.872 220.861 185.008 221.725 185.088L220.837 187.056C219.829 186.944 218.885 186.76 218.005 186.504C217.141 186.248 216.349 185.928 215.629 185.544C214.925 185.144 214.317 184.696 213.805 184.2C213.309 183.688 212.925 183.128 212.653 182.52C212.381 181.896 212.245 181.248 212.245 180.576V179.976ZM204.685 179.016H220.909V181.008H204.685V179.016ZM240.515 178.056H243.035V189.816H240.515V178.056ZM228.731 190.872H231.203V193.248H240.563V190.872H243.035V199.704H228.731V190.872ZM231.203 195.192V197.688H240.563V195.192H231.203ZM231.203 179.04C232.323 179.04 233.323 179.256 234.203 179.688C235.083 180.12 235.771 180.72 236.267 181.488C236.779 182.24 237.035 183.12 237.035 184.128C237.035 185.136 236.779 186.024 236.267 186.792C235.771 187.56 235.083 188.16 234.203 188.592C233.323 189.024 232.323 189.24 231.203 189.24C230.083 189.24 229.083 189.024 228.203 188.592C227.323 188.16 226.627 187.56 226.115 186.792C225.619 186.024 225.371 185.136 225.371 184.128C225.371 183.12 225.619 182.24 226.115 181.488C226.627 180.72 227.323 180.12 228.203 179.688C229.083 179.256 230.083 179.04 231.203 179.04ZM231.203 181.104C230.547 181.104 229.963 181.232 229.451 181.488C228.955 181.728 228.563 182.08 228.275 182.544C227.987 182.992 227.843 183.52 227.843 184.128C227.843 184.736 227.987 185.272 228.275 185.736C228.563 186.184 228.955 186.536 229.451 186.792C229.963 187.032 230.547 187.152 231.203 187.152C231.859 187.152 232.435 187.032 232.931 186.792C233.443 186.536 233.843 186.184 234.131 185.736C234.435 185.272 234.587 184.736 234.587 184.128C234.587 183.52 234.435 182.992 234.131 182.544C233.843 182.08 233.443 181.728 232.931 181.488C232.435 181.232 231.859 181.104 231.203 181.104ZM262.642 178.032H265.162V199.968H262.642V178.032ZM248.314 180.168H250.81V193.776H248.314V180.168ZM248.314 192.288H250.186C251.834 192.288 253.53 192.216 255.274 192.072C257.018 191.928 258.802 191.664 260.626 191.28L260.914 193.416C259.026 193.8 257.194 194.064 255.418 194.208C253.642 194.352 251.898 194.424 250.186 194.424H248.314V192.288ZM283.592 178.032H286.112V200.016H283.592V178.032ZM285.56 186.456H289.52V188.544H285.56V186.456ZM270.008 192.528H271.784C273.096 192.528 274.304 192.512 275.408 192.48C276.512 192.432 277.584 192.36 278.624 192.264C279.664 192.152 280.72 192 281.792 191.808L282.056 193.896C280.952 194.104 279.864 194.264 278.792 194.376C277.736 194.472 276.632 194.544 275.48 194.592C274.344 194.624 273.112 194.64 271.784 194.64H270.008V192.528ZM270.008 180.12H280.208V182.16H272.504V193.512H270.008V180.12ZM293.67 198.336C293.158 198.336 292.718 198.152 292.35 197.784C291.998 197.4 291.822 196.928 291.822 196.368C291.822 195.792 291.998 195.328 292.35 194.976C292.718 194.608 293.158 194.424 293.67 194.424C294.198 194.424 294.638 194.608 294.99 194.976C295.358 195.328 295.542 195.792 295.542 196.368C295.542 196.928 295.358 197.4 294.99 197.784C294.638 198.152 294.198 198.336 293.67 198.336Z" fill="#B5B9BD"/>
</svg>
