<svg width="48" height="48" viewBox="0 0 48 48" fill="none" xmlns="http://www.w3.org/2000/svg">
<rect x="1" y="1" width="46" height="46" rx="23" fill="white"/>
<rect x="1" y="1" width="46" height="46" rx="23" stroke="#8E9398" stroke-width="2"/>
<path d="M32 29.4933C30.9867 29.4933 30.08 29.8933 29.3867 30.52L19.88 24.9867C19.9467 24.68 20 24.3733 20 24.0533C20 23.7333 19.9467 23.4267 19.88 23.12L29.28 17.64C30 18.3067 30.9467 18.72 32 18.72C34.2133 18.72 36 16.9333 36 14.72C36 12.5067 34.2133 10.72 32 10.72C29.7867 10.72 28 12.5067 28 14.72C28 15.04 28.0533 15.3467 28.12 15.6533L18.72 21.1333C18 20.4667 17.0533 20.0533 16 20.0533C13.7867 20.0533 12 21.84 12 24.0533C12 26.2667 13.7867 28.0533 16 28.0533C17.0533 28.0533 18 27.64 18.72 26.9733L28.2133 32.52C28.1467 32.8 28.1067 33.0933 28.1067 33.3867C28.1067 35.5333 29.8533 37.28 32 37.28C34.1467 37.28 35.8933 35.5333 35.8933 33.3867C35.8933 31.24 34.1467 29.4933 32 29.4933ZM32 13.3867C32.7333 13.3867 33.3333 13.9867 33.3333 14.72C33.3333 15.4533 32.7333 16.0533 32 16.0533C31.2667 16.0533 30.6667 15.4533 30.6667 14.72C30.6667 13.9867 31.2667 13.3867 32 13.3867ZM16 25.3867C15.2667 25.3867 14.6667 24.7867 14.6667 24.0533C14.6667 23.32 15.2667 22.72 16 22.72C16.7333 22.72 17.3333 23.32 17.3333 24.0533C17.3333 24.7867 16.7333 25.3867 16 25.3867ZM32 34.7467C31.2667 34.7467 30.6667 34.1467 30.6667 33.4133C30.6667 32.68 31.2667 32.08 32 32.08C32.7333 32.08 33.3333 32.68 33.3333 33.4133C33.3333 34.1467 32.7333 34.7467 32 34.7467Z" fill="#8E9398"/>
</svg>
