<svg width="16" height="20" viewBox="0 0 16 20" fill="none" xmlns="http://www.w3.org/2000/svg">
<path d="M8 0.161133C3.8 0.161133 0 3.38113 0 8.36113C0 11.5411 2.45 15.2811 7.34 19.5911C7.72 19.9211 8.29 19.9211 8.67 19.5911C13.55 15.2811 16 11.5411 16 8.36113C16 3.38113 12.2 0.161133 8 0.161133ZM6.23 10.8211L4.82 9.41113C4.43 9.02113 4.43 8.39113 4.82 8.00113C5.21 7.61113 5.84 7.61113 6.23 8.00113L6.94 8.71113L9.77 5.88113C10.16 5.49113 10.79 5.49113 11.18 5.88113C11.57 6.27113 11.57 6.90113 11.18 7.29113L7.64 10.8311C7.26 11.2111 6.62 11.2111 6.23 10.8211Z" fill="#1A661B"/>
</svg>
