<svg width="185" height="37" viewBox="0 0 185 37" fill="none" xmlns="http://www.w3.org/2000/svg">
<g clip-path="url(#clip0_3642_31699)">
<path d="M7.87472 19.1635C12.2238 19.1635 15.7494 15.5154 15.7494 11.0153C15.7494 6.51524 12.2238 2.86719 7.87472 2.86719C3.52563 2.86719 0 6.51524 0 11.0153C0 15.5154 3.52563 19.1635 7.87472 19.1635Z" fill="#252729"/>
<path d="M19.4017 3.53516H30.2831C31.2324 3.53516 32.0013 4.33071 32.0013 5.31293V16.5722C32.0013 17.5544 31.2324 18.35 30.2831 18.35H29.3095C28.8342 18.35 28.3818 18.147 28.0567 17.7885L18.1489 6.86256C17.8497 6.53367 17.6836 6.09812 17.6836 5.64627V5.31293C17.6836 4.33071 18.4525 3.53516 19.4017 3.53516Z" fill="#64994C"/>
<path d="M13.2441 36.8656H2.36265C1.41339 36.8656 0.644531 36.07 0.644531 35.0878V23.8286C0.644531 22.8463 1.41339 22.0508 2.36265 22.0508H3.33625C3.8116 22.0508 4.26404 22.2537 4.58905 22.6123L14.4969 33.5382C14.7961 33.8671 14.9622 34.3026 14.9622 34.7545V35.0878C14.9622 36.07 14.1933 36.8656 13.2441 36.8656Z" fill="#DED174"/>
<path d="M30.2831 22.0508H19.4017C18.4528 22.0508 17.6836 22.8467 17.6836 23.8286V35.0878C17.6836 36.0697 18.4528 36.8656 19.4017 36.8656H30.2831C31.232 36.8656 32.0013 36.0697 32.0013 35.0878V23.8286C32.0013 22.8467 31.232 22.0508 30.2831 22.0508Z" fill="#709AB4"/>
</g>
<path d="M57.4754 2.57669C59.2978 2.57669 60.933 3.11075 62.37 4.18437C63.8125 5.25249 64.9357 6.77208 65.7395 8.74314C66.5434 10.7142 66.9508 13.0321 66.9508 15.7024C66.9508 18.3727 66.5489 20.7292 65.7395 22.7002C64.9357 24.6713 63.8125 26.1909 62.37 27.259C60.9275 28.3271 59.2978 28.8667 57.4754 28.8667C55.653 28.8667 54.0288 28.3326 52.5973 27.259C51.1713 26.1909 50.0481 24.6713 49.2278 22.7002C48.4074 20.7292 48 18.4002 48 15.7024C48 13.0046 48.4074 10.7142 49.2278 8.74314C50.0481 6.77208 51.1713 5.25249 52.5973 4.18437C54.0233 3.11626 55.6475 2.57669 57.4754 2.57669ZM57.4754 7.37221C56.6055 7.37221 55.8292 7.69154 55.1575 8.3247C54.4858 8.95786 53.9572 9.88834 53.5718 11.1216C53.1864 12.3494 52.9992 13.8745 52.9992 15.7024C52.9992 17.5303 53.1919 19.0279 53.5718 20.2832C53.9572 21.5385 54.4858 22.4855 55.1575 23.1187C55.8292 23.7518 56.6055 24.0712 57.4754 24.0712C58.4004 24.0712 59.1932 23.7518 59.8539 23.1187C60.5146 22.4855 61.0321 21.5385 61.401 20.2832C61.7699 19.0279 61.9571 17.5028 61.9571 15.7024C61.9571 13.902 61.7699 12.3549 61.401 11.1216C61.0321 9.89384 60.5146 8.96337 59.8539 8.3247C59.1932 7.69154 58.4004 7.37221 57.4754 7.37221ZM63.8566 7.53187H73.844V11.7713H63.8566V7.53187ZM63.8566 18.9508H73.844V23.1902H63.8566V18.9508ZM75.6114 0C77.0649 0 78.2486 1.17823 78.2486 2.63726V34.1907C78.2486 35.6443 77.0704 36.828 75.6114 36.828C74.1578 36.828 72.9741 35.6498 72.9741 34.1907V2.63726C72.9741 1.18374 74.1523 0 75.6114 0Z" fill="#252729"/>
<path d="M97.2814 3.84904H102.473C102.473 6.65147 102.204 9.32727 101.658 11.8764C101.119 14.4256 100.216 16.8261 98.9607 19.0725C97.7053 21.3188 95.9875 23.4 93.8073 25.316C92.0179 26.8851 89.8707 28.3497 87.3655 29.6986C86.413 30.2106 85.2238 29.9078 84.6237 29.0103L84.1887 28.3607C83.506 27.3366 83.8474 25.9491 84.9265 25.36C87.5307 23.9285 89.6724 22.3814 91.3517 20.7242C93.4549 18.6485 94.9635 16.2976 95.8884 13.6658C96.8134 11.0341 97.2759 8.08297 97.2759 4.80705V3.85455L97.2814 3.84904ZM86.9746 3.84904H99.737V8.04993H86.9746C85.8129 8.04993 84.8714 7.10845 84.8714 5.94674C84.8714 4.78502 85.8129 3.84354 86.9746 3.84354V3.84904ZM110.737 0.0445673C112.191 0.0445673 113.375 1.2228 113.375 2.68182V34.1197C113.375 35.5732 112.196 36.7569 110.737 36.7569C109.284 36.7569 108.1 35.5787 108.1 34.1197V2.67632C108.1 1.2228 109.278 0.0390625 110.737 0.0390625V0.0445673Z" fill="#252729"/>
<path d="M122.658 3.96466C124.101 3.96466 125.273 5.13739 125.273 6.5799V26.797H120.043V6.5799C120.043 5.13739 121.216 3.96466 122.658 3.96466ZM120.043 23.8625H123.176C124.921 23.8625 126.683 23.8184 128.467 23.7248C130.251 23.6312 132.068 23.4826 133.917 23.2678C135.03 23.1412 136.153 22.987 137.276 22.7999C138.498 22.6016 139.643 23.444 139.798 24.6718C139.946 25.8335 139.153 26.9071 138.003 27.1054C136.747 27.3201 135.509 27.5018 134.275 27.6504C132.37 27.8762 130.498 28.0358 128.648 28.1239C126.799 28.2175 124.976 28.2616 123.176 28.2616H120.043V23.8625ZM135.96 11.414H145.254V15.6534H135.96C134.787 15.6534 133.84 14.7064 133.84 13.5337C133.84 12.3609 134.787 11.414 135.96 11.414ZM146.344 0.0390625C147.797 0.0390625 148.981 1.21729 148.981 2.67632V34.2298C148.981 35.6833 147.803 36.8671 146.344 36.8671C144.89 36.8671 143.707 35.6888 143.707 34.2298V2.67632C143.707 1.2228 144.885 0.0390625 146.344 0.0390625Z" fill="#252729"/>
<path d="M154.898 3.2539H172.379V27.8316H154.898V3.2539ZM167.187 7.41625H160.09V23.7078H167.187V7.41625ZM171.427 12.6908H181.216V16.9302H171.427V12.6908ZM181.711 0.00550588C183.165 0.00550588 184.349 1.18374 184.349 2.64276V34.1962C184.349 35.6498 183.17 36.8335 181.711 36.8335C180.258 36.8335 179.074 35.6553 179.074 34.1962V2.63726C179.074 1.18374 180.252 0 181.711 0V0.00550588Z" fill="#252729"/>
<defs>
<clipPath id="clip0_3642_31699">
<rect width="32" height="34" fill="white" transform="translate(0 2.86719)"/>
</clipPath>
</defs>
</svg>
