<svg width="35" height="35" viewBox="0 0 35 35" fill="none" xmlns="http://www.w3.org/2000/svg">
<path d="M0 24.5V0H10.3722C15.5128 0 18.6824 3.2854 18.6666 8.05975C18.6824 12.8988 15.4498 16.0871 10.2145 16.0871H5.36141V24.5H0ZM5.36141 11.7174H9.23684C11.7756 11.7336 13.116 10.277 13.116 8.05975C13.116 5.87488 11.7756 4.46685 9.23684 4.46685H5.36141V11.7174Z" fill="current"/>
<path d="M25.395 13.8516C25.395 15.0597 24.4026 16.0391 23.1783 16.0391C21.9541 16.0391 20.9617 15.0597 20.9617 13.8516C20.9617 12.6434 21.9541 11.6641 23.1783 11.6641C24.4026 11.6641 25.395 12.6434 25.395 13.8516Z" fill="current"/>
<path fill-rule="evenodd" clip-rule="evenodd" d="M16.4843 16.9899C16.7191 16.845 16.9905 16.7682 17.2675 16.7682H22.4397C23.2558 16.7682 23.9174 17.4211 23.9174 18.2266V21.5807L26.834 23.3307L28.7202 23.3307C29.2799 23.3307 29.7916 23.6428 30.0419 24.1369L32.589 29.1641H33.5229C34.339 29.1641 35.0007 29.817 35.0007 30.6224C35.0007 31.4278 34.339 32.0807 33.5229 32.0807H31.6757C31.1159 32.0807 30.6043 31.7686 30.3539 31.2746L27.8068 26.2474H27.4468C27.0605 26.2474 26.5292 23.9233 25.084 22.7474C23.4765 21.4395 20.9619 21.2465 20.9619 20.8224V19.6849H17.6913L15.0952 21.2861C14.4031 21.713 13.4914 21.5054 13.0588 20.8224C12.6262 20.1394 12.8366 19.2397 13.5287 18.8128L16.4843 16.9899Z" fill="current"/>
<path fill-rule="evenodd" clip-rule="evenodd" d="M20.9617 21.8724C17.6971 21.8724 15.0506 24.4841 15.0506 27.7057C15.0506 30.9274 17.6971 33.5391 20.9617 33.5391C24.2263 33.5391 26.8727 30.9274 26.8727 27.7057C26.8727 24.4841 24.2263 21.8724 20.9617 21.8724ZM13.5729 27.7057C13.5729 23.6787 16.881 20.4141 20.9617 20.4141C25.0424 20.4141 28.3505 23.6787 28.3505 27.7057C28.3505 31.7328 25.0424 34.9974 20.9617 34.9974C16.881 34.9974 13.5729 31.7328 13.5729 27.7057Z" fill="current"/>
</svg>
