<svg width="88" height="88" viewBox="0 0 88 88" fill="none" xmlns="http://www.w3.org/2000/svg">
<path d="M61.765 52.2708H58.8684L57.8417 51.2808C61.435 47.1008 63.5984 41.6742 63.5984 35.7708C63.5984 22.6075 52.9284 11.9375 39.765 11.9375C27.225 11.9375 16.9584 21.6175 16.0417 33.9375H23.4484C24.365 25.6875 31.2584 19.2708 39.765 19.2708C48.895 19.2708 56.265 26.6408 56.265 35.7708C56.265 44.9008 48.895 52.2708 39.765 52.2708C39.1417 52.2708 38.555 52.1608 37.9317 52.0875V59.4942C38.555 59.5675 39.1417 59.6042 39.765 59.6042C45.6684 59.6042 51.095 57.4408 55.275 53.8475L56.265 54.8742V57.7708L74.5984 76.0675L80.0617 70.6042L61.765 52.2708Z" fill="#B5B9BD"/>
<path d="M28.655 40.6108L19.5984 49.6675L10.5417 40.6108L7.93835 43.2142L16.995 52.2708L7.93835 61.3275L10.5417 63.9308L19.5984 54.8742L28.655 63.9308L31.2584 61.3275L22.2017 52.2708L31.2584 43.2142L28.655 40.6108Z" fill="#B5B9BD"/>
</svg>
