<svg width="48" height="48" viewBox="0 0 48 48" fill="none" xmlns="http://www.w3.org/2000/svg">
<rect x="1" y="1" width="46" height="46" rx="23" fill="white"/>
<rect x="1" y="1" width="46" height="46" rx="23" stroke="#8E9398" stroke-width="2"/>
<path d="M34.2123 13.5563C30.6923 11.1563 26.3456 12.2763 23.999 15.0229C21.6523 12.2763 17.3056 11.1429 13.7856 13.5563C11.919 14.8363 10.7456 16.9963 10.6656 19.2763C10.479 24.4496 15.0656 28.5963 22.0657 34.9563L22.199 35.0763C23.2123 35.9963 24.7723 35.9963 25.7857 35.0629L25.9323 34.9296C32.9323 28.5829 37.5057 24.4363 37.3323 19.2629C37.2523 16.9963 36.079 14.8363 34.2123 13.5563ZM24.1323 32.9696L23.999 33.1029L23.8656 32.9696C17.519 27.2229 13.3323 23.4229 13.3323 19.5696C13.3323 16.9029 15.3323 14.9029 17.999 14.9029C20.0523 14.9029 22.0523 16.2229 22.759 18.0496H25.2523C25.9456 16.2229 27.9456 14.9029 29.999 14.9029C32.6657 14.9029 34.6657 16.9029 34.6657 19.5696C34.6657 23.4229 30.479 27.2229 24.1323 32.9696Z" fill="#8E9398"/>
</svg>
