<svg width="32" height="32" viewBox="0 0 32 32" fill="none" xmlns="http://www.w3.org/2000/svg">
<path d="M15.986 2.66406C8.62602 2.66406 2.66602 8.6374 2.66602 15.9974C2.66602 23.3574 8.62602 29.3307 15.986 29.3307C23.3594 29.3307 29.3327 23.3574 29.3327 15.9974C29.3327 8.6374 23.3594 2.66406 15.986 2.66406ZM15.9993 26.6641C10.106 26.6641 5.33268 21.8907 5.33268 15.9974C5.33268 10.1041 10.106 5.33073 15.9993 5.33073C21.8927 5.33073 26.666 10.1041 26.666 15.9974C26.666 21.8907 21.8927 26.6641 15.9993 26.6641ZM15.706 9.33073H15.626C15.0927 9.33073 14.666 9.7574 14.666 10.2907V16.5841C14.666 17.0507 14.906 17.4907 15.3193 17.7307L20.8527 21.0507C21.306 21.3174 21.8927 21.1841 22.1594 20.7307C22.4394 20.2774 22.2927 19.6774 21.826 19.4107L16.666 16.3441V10.2907C16.666 9.7574 16.2393 9.33073 15.706 9.33073Z" fill="#529B40"/>
</svg>
