<svg width="37" height="36" viewBox="0 0 37 36" fill="none" xmlns="http://www.w3.org/2000/svg">
<path d="M27.061 13.9531C27.061 15.1612 26.0686 16.1406 24.8444 16.1406C23.6201 16.1406 22.6277 15.1612 22.6277 13.9531C22.6277 12.745 23.6201 11.7656 24.8444 11.7656C26.0686 11.7656 27.061 12.745 27.061 13.9531Z" fill="current"/>
<path fill-rule="evenodd" clip-rule="evenodd" d="M18.1503 17.0915C18.3851 16.9466 18.6565 16.8698 18.9335 16.8698H24.1057C24.9218 16.8698 25.5834 17.5227 25.5834 18.3281V21.6823L28.5 23.4323L30.3862 23.4323C30.9459 23.4323 31.4576 23.7444 31.7079 24.2384L34.255 29.2656H35.1889C36.0051 29.2656 36.6667 29.9185 36.6667 30.724C36.6667 31.5294 36.0051 32.1823 35.1889 32.1823H33.3417C32.782 32.1823 32.2703 31.8702 32.0199 31.3761L29.4729 26.349H29.1129C28.7265 26.349 28.1952 24.0248 26.75 22.849C25.1425 21.5411 22.6279 21.3481 22.6279 20.924V19.7865H19.3573L16.7612 21.3877C16.0691 21.8146 15.1574 21.6069 14.7248 20.924C14.2923 20.241 14.5027 19.3412 15.1947 18.9144L18.1503 17.0915Z" fill="current"/>
<path fill-rule="evenodd" clip-rule="evenodd" d="M22.6277 21.974C19.3631 21.974 16.7166 24.5856 16.7166 27.8073C16.7166 31.029 19.3631 33.6406 22.6277 33.6406C25.8923 33.6406 28.5388 31.029 28.5388 27.8073C28.5388 24.5856 25.8923 21.974 22.6277 21.974ZM15.2389 27.8073C15.2389 23.7802 18.547 20.5156 22.6277 20.5156C26.7084 20.5156 30.0165 23.7802 30.0165 27.8073C30.0165 31.8344 26.7084 35.099 22.6277 35.099C18.547 35.099 15.2389 31.8344 15.2389 27.8073Z" fill="current"/>
<g clip-path="url(#clip0_3825_52743)">
<path d="M7.99805 15.6305V0.21875H8.66111V15.6305H7.99805Z" fill="current"/>
<path d="M0.5 4.81487C0.5 3.85677 1.27865 3.07812 2.23675 3.07812H4.99243C5.95053 3.07812 6.72917 3.85677 6.72917 4.81487V8.71115C6.72917 9.03964 6.46151 9.3073 6.13302 9.3073C5.80453 9.3073 5.53687 9.03964 5.53687 8.71115V5.17378H5.32092V15.0377C5.32092 15.4604 4.97722 15.8072 4.5514 15.8072C4.12557 15.8072 3.78187 15.4635 3.78187 15.0377V9.22518H3.45947V15.0377H3.45642C3.45642 15.4604 3.11272 15.8072 2.6869 15.8072C2.26108 15.8072 1.92042 15.4635 1.92042 15.0377V5.17378H1.70447V8.71115C1.70447 9.03964 1.43681 9.3073 1.10832 9.3073C0.779826 9.3073 0.5 9.04268 0.5 8.71419V4.81791V4.81487Z" fill="current"/>
<path d="M3.59982 2.82074C2.84855 2.82074 2.24023 2.21243 2.24023 1.46115C2.24023 0.70988 2.84855 0.101562 3.59982 0.101562C4.3511 0.101562 4.95942 0.70988 4.95942 1.46115C4.95942 2.21243 4.3511 2.82074 3.59982 2.82074Z" fill="current"/>
<path d="M9.43948 7.92338H9.4334L10.5284 4.18222V4.1883C10.72 3.54653 11.3131 3.07812 12.0157 3.07812H14.23C14.9326 3.07812 15.5257 3.54653 15.7143 4.1883V4.18222L16.8093 7.92338H16.8032C16.8214 7.98117 16.8336 8.03896 16.8336 8.09979C16.8336 8.41307 16.5811 8.66552 16.2679 8.66552C16.0093 8.66552 15.7934 8.49215 15.7264 8.25491H15.7204L14.7227 4.83312H14.4794L16.2101 10.7612H14.5554V15.0346C14.5615 15.0741 14.5676 15.1137 14.5676 15.1532C14.5676 15.5121 14.2756 15.8011 13.9197 15.8011C13.5639 15.8011 13.2719 15.5121 13.2719 15.1532V10.7612H12.9769V15.1532C12.9769 15.5121 12.6879 15.8011 12.329 15.8011C11.9701 15.8011 11.6781 15.5121 11.6781 15.1532C11.6781 15.1137 11.6842 15.0741 11.6903 15.0346V10.7612H10.0356L11.7663 4.83312H11.523L10.5253 8.25491H10.5192C10.4523 8.48911 10.2364 8.66552 9.97785 8.66552C9.66456 8.66552 9.41211 8.41307 9.41211 8.09979C9.41211 8.03896 9.42428 7.98117 9.44253 7.92338H9.43948Z" fill="current"/>
<path d="M13.1037 2.82074C12.3525 2.82074 11.7441 2.21243 11.7441 1.46115C11.7441 0.70988 12.3525 0.101562 13.1037 0.101562C13.855 0.101562 14.4633 0.70988 14.4633 1.46115C14.4633 2.21243 13.855 2.82074 13.1037 2.82074Z" fill="current"/>
</g>
<defs>
<clipPath id="clip0_3825_52743">
<rect width="16.3333" height="15.7007" fill="white" transform="translate(0.5 0.101562)"/>
</clipPath>
</defs>
</svg>
