<svg width="24" height="24" viewBox="0 0 24 24" fill="none" xmlns="http://www.w3.org/2000/svg">
<path fill-rule="evenodd" clip-rule="evenodd" d="M8.26316 13.875H10.8382C12.0808 13.875 13.0882 14.8824 13.0882 16.125C13.0882 17.3676 12.0808 18.375 10.8382 18.375H6.625C6.34886 18.375 6.125 18.5989 6.125 18.875C6.125 19.1511 6.34886 19.375 6.625 19.375H16V20.625H6.625C5.6585 20.625 4.875 19.8415 4.875 18.875C4.875 17.9085 5.6585 17.125 6.625 17.125H10.8382C11.3904 17.125 11.8382 16.6773 11.8382 16.125C11.8382 15.5727 11.3904 15.125 10.8382 15.125H8.26316V13.875Z" fill="#505458"/>
<path fill-rule="evenodd" clip-rule="evenodd" d="M6.5 13.625C6.01675 13.625 5.625 14.0168 5.625 14.5C5.625 14.9832 6.01675 15.375 6.5 15.375C6.98325 15.375 7.375 14.9832 7.375 14.5C7.375 14.0168 6.98325 13.625 6.5 13.625ZM4.375 14.5C4.375 13.3264 5.3264 12.375 6.5 12.375C7.6736 12.375 8.625 13.3264 8.625 14.5C8.625 15.6736 7.6736 16.625 6.5 16.625C5.3264 16.625 4.375 15.6736 4.375 14.5Z" fill="#505458"/>
<path fill-rule="evenodd" clip-rule="evenodd" d="M17.5 19.125C17.0168 19.125 16.625 19.5168 16.625 20C16.625 20.4832 17.0168 20.875 17.5 20.875C17.9832 20.875 18.375 20.4832 18.375 20C18.375 19.5168 17.9832 19.125 17.5 19.125ZM15.375 20C15.375 18.8264 16.3264 17.875 17.5 17.875C18.6736 17.875 19.625 18.8264 19.625 20C19.625 21.1736 18.6736 22.125 17.5 22.125C16.3264 22.125 15.375 21.1736 15.375 20Z" fill="#505458"/>
<path fill-rule="evenodd" clip-rule="evenodd" d="M6.5 1.75C5.63804 1.75 4.81139 2.0924 4.2019 2.70188C3.59241 3.31136 3.25 4.13799 3.25 4.99992C3.25 5.95975 3.77698 7.03585 4.52137 8.04927C5.20451 8.9793 6.00004 9.76206 6.50003 10.2179C7.00014 9.7622 7.79574 8.9794 8.47885 8.04931C9.22313 7.03592 9.75 5.9598 9.75 4.99992C9.75 4.13799 9.40759 3.31136 8.7981 2.70188C8.18861 2.09241 7.36196 1.75 6.5 1.75ZM3.14125 1.64121C4.03205 0.750433 5.24023 0.25 6.5 0.25C7.75977 0.25 8.96795 0.750433 9.85875 1.64121C10.7496 2.532 11.25 3.74016 11.25 4.99992C11.25 6.44866 10.4872 7.84882 9.68781 8.93723C8.87279 10.0469 7.93175 10.9497 7.40525 11.4216C7.39063 11.4347 7.37551 11.4473 7.35991 11.4592C7.11293 11.6478 6.81078 11.75 6.5 11.75C6.18923 11.75 5.88707 11.6478 5.64009 11.4592C5.62443 11.4472 5.60924 11.4346 5.59457 11.4215C5.06857 10.9497 4.12755 10.0469 3.31246 8.93726C2.51302 7.8489 1.75 6.44871 1.75 4.99992C1.75 3.74016 2.25045 2.532 3.14125 1.64121Z" fill="#505458"/>
<path fill-rule="evenodd" clip-rule="evenodd" d="M6.5 4.625C6.15482 4.625 5.875 4.90482 5.875 5.25C5.875 5.59518 6.15482 5.875 6.5 5.875C6.84518 5.875 7.125 5.59518 7.125 5.25C7.125 4.90482 6.84518 4.625 6.5 4.625ZM4.625 5.25C4.625 4.21447 5.46447 3.375 6.5 3.375C7.53553 3.375 8.375 4.21447 8.375 5.25C8.375 6.28553 7.53553 7.125 6.5 7.125C5.46447 7.125 4.625 6.28553 4.625 5.25Z" fill="#505458"/>
<path fill-rule="evenodd" clip-rule="evenodd" d="M17.5 6.75C16.638 6.75 15.8114 7.09241 15.2019 7.70189C14.5924 8.31137 14.25 9.13799 14.25 9.99992C14.25 10.9598 14.777 12.0358 15.5214 13.0493C16.2045 13.9793 17 14.7621 17.5 15.2179C18.0001 14.7622 18.7957 13.9794 19.4789 13.0493C20.2231 12.0359 20.75 10.9598 20.75 9.99992C20.75 9.13799 20.4076 8.31137 19.7981 7.70189C19.1886 7.09241 18.362 6.75 17.5 6.75ZM14.1412 6.64121C15.032 5.75043 16.2402 5.25 17.5 5.25C18.7598 5.25 19.968 5.75043 20.8588 6.64121C21.7496 7.532 22.25 8.74016 22.25 9.99992C22.25 11.4487 21.4872 12.8488 20.6878 13.9372C19.8728 15.0469 18.9318 15.9497 18.4053 16.4216C18.3906 16.4347 18.3755 16.4473 18.3599 16.4592C18.1129 16.6478 17.8108 16.75 17.5 16.75C17.1892 16.75 16.8871 16.6478 16.6401 16.4592C16.6244 16.4472 16.6092 16.4346 16.5946 16.4215C16.0686 15.9497 15.1276 15.0469 14.3125 13.9373C13.513 12.8489 12.75 11.4487 12.75 9.99992C12.75 8.74016 13.2504 7.532 14.1412 6.64121Z" fill="#505458"/>
<path fill-rule="evenodd" clip-rule="evenodd" d="M17.5 9.625C17.1548 9.625 16.875 9.90482 16.875 10.25C16.875 10.5952 17.1548 10.875 17.5 10.875C17.8452 10.875 18.125 10.5952 18.125 10.25C18.125 9.90482 17.8452 9.625 17.5 9.625ZM15.625 10.25C15.625 9.21447 16.4645 8.375 17.5 8.375C18.5355 8.375 19.375 9.21447 19.375 10.25C19.375 11.2855 18.5355 12.125 17.5 12.125C16.4645 12.125 15.625 11.2855 15.625 10.25Z" fill="#505458"/>
</svg>
