<svg width="32" height="32" viewBox="0 0 32 32" fill="none" xmlns="http://www.w3.org/2000/svg">
<path d="M15.986 2.66406C8.62602 2.66406 2.66602 8.6374 2.66602 15.9974C2.66602 23.3574 8.62602 29.3307 15.986 29.3307C23.3594 29.3307 29.3327 23.3574 29.3327 15.9974C29.3327 8.6374 23.3594 2.66406 15.986 2.66406ZM25.226 10.6641H21.2927C20.866 8.9974 20.2527 7.3974 19.4527 5.9174C21.906 6.7574 23.946 8.46406 25.226 10.6641ZM15.9993 5.38406C17.106 6.98406 17.9727 8.7574 18.546 10.6641H13.4527C14.026 8.7574 14.8927 6.98406 15.9993 5.38406ZM5.67935 18.6641C5.46602 17.8107 5.33268 16.9174 5.33268 15.9974C5.33268 15.0774 5.46602 14.1841 5.67935 13.3307H10.186C10.0793 14.2107 9.99935 15.0907 9.99935 15.9974C9.99935 16.9041 10.0793 17.7841 10.186 18.6641H5.67935ZM6.77268 21.3307H10.706C11.1327 22.9974 11.746 24.5974 12.546 26.0774C10.0927 25.2374 8.05268 23.5441 6.77268 21.3307ZM10.706 10.6641H6.77268C8.05268 8.45073 10.0927 6.7574 12.546 5.9174C11.746 7.3974 11.1327 8.9974 10.706 10.6641ZM15.9993 26.6107C14.8927 25.0107 14.026 23.2374 13.4527 21.3307H18.546C17.9727 23.2374 17.106 25.0107 15.9993 26.6107ZM19.1194 18.6641H12.8793C12.7593 17.7841 12.666 16.9041 12.666 15.9974C12.666 15.0907 12.7593 14.1974 12.8793 13.3307H19.1194C19.2393 14.1974 19.3327 15.0907 19.3327 15.9974C19.3327 16.9041 19.2393 17.7841 19.1194 18.6641ZM19.4527 26.0774C20.2527 24.5974 20.866 22.9974 21.2927 21.3307H25.226C23.946 23.5307 21.906 25.2374 19.4527 26.0774ZM21.8127 18.6641C21.9193 17.7841 21.9993 16.9041 21.9993 15.9974C21.9993 15.0907 21.9193 14.2107 21.8127 13.3307H26.3193C26.5327 14.1841 26.666 15.0774 26.666 15.9974C26.666 16.9174 26.5327 17.8107 26.3193 18.6641H21.8127Z" fill="#529B40"/>
</svg>
