<svg width="40" height="40" viewBox="0 0 40 40" fill="none" xmlns="http://www.w3.org/2000/svg">
<path fill-rule="evenodd" clip-rule="evenodd" d="M20 3.5C10.8873 3.5 3.5 10.8873 3.5 20C3.5 29.1127 10.8873 36.5 20 36.5C29.1127 36.5 36.5 29.1127 36.5 20C36.5 10.8873 29.1127 3.5 20 3.5ZM0.5 20C0.5 9.23045 9.23045 0.5 20 0.5C30.7696 0.5 39.5 9.23045 39.5 20C39.5 30.7696 30.7696 39.5 20 39.5C9.23045 39.5 0.5 30.7696 0.5 20Z" fill="#FCFCFD"/>
<path d="M16 16C16 17.1046 15.1046 18 14 18C12.8954 18 12 17.1046 12 16C12 14.8954 12.8954 14 14 14C15.1046 14 16 14.8954 16 16Z" fill="#FCFCFD"/>
<path d="M28 16C28 17.1046 27.1046 18 26 18C24.8954 18 24 17.1046 24 16C24 14.8954 24.8954 14 26 14C27.1046 14 28 14.8954 28 16Z" fill="#FCFCFD"/>
<path fill-rule="evenodd" clip-rule="evenodd" d="M13.2558 28.4225C13.9751 28.8335 14.8913 28.5836 15.3024 27.8643C16.2517 26.203 18.0131 25.1001 20 25.1001C21.9869 25.1001 23.7483 26.203 24.6976 27.8643C25.1087 28.5836 26.0249 28.8335 26.7442 28.4225C27.4635 28.0114 27.7134 27.0952 27.3024 26.3759C25.8517 23.8372 23.1279 22.1001 20 22.1001C16.8721 22.1001 14.1483 23.8372 12.6976 26.3759C12.2866 27.0952 12.5365 28.0114 13.2558 28.4225Z" fill="#FCFCFD"/>
</svg>
