<svg width="40" height="40" viewBox="0 0 40 40" fill="none" xmlns="http://www.w3.org/2000/svg">
<path fill-rule="evenodd" clip-rule="evenodd" d="M20 3.5C10.8873 3.5 3.5 10.8873 3.5 20C3.5 29.1127 10.8873 36.5 20 36.5C29.1127 36.5 36.5 29.1127 36.5 20C36.5 10.8873 29.1127 3.5 20 3.5ZM0.5 20C0.5 9.23045 9.23045 0.5 20 0.5C30.7696 0.5 39.5 9.23045 39.5 20C39.5 30.7696 30.7696 39.5 20 39.5C9.23045 39.5 0.5 30.7696 0.5 20Z" fill="#FCFCFD"/>
<path d="M16 16C16 17.1046 15.1046 18 14 18C12.8954 18 12 17.1046 12 16C12 14.8954 12.8954 14 14 14C15.1046 14 16 14.8954 16 16Z" fill="#FCFCFD"/>
<path d="M28 16C28 17.1046 27.1046 18 26 18C24.8954 18 24 17.1046 24 16C24 14.8954 24.8954 14 26 14C27.1046 14 28 14.8954 28 16Z" fill="#FCFCFD"/>
<path fill-rule="evenodd" clip-rule="evenodd" d="M10.5 24C10.5 23.1716 11.1716 22.5 12 22.5H28C28.8284 22.5 29.5 23.1716 29.5 24C29.5 29.2467 25.2467 33.5 20 33.5C14.7533 33.5 10.5 29.2467 10.5 24ZM13.6739 25.5C14.3511 28.3667 16.9264 30.5 20 30.5C23.0736 30.5 25.6489 28.3667 26.3261 25.5H13.6739Z" fill="#FCFCFD"/>
</svg>
