<svg width="40" height="40" viewBox="0 0 40 40" fill="none" xmlns="http://www.w3.org/2000/svg">
<path fill-rule="evenodd" clip-rule="evenodd" d="M20 3.5C10.8873 3.5 3.5 10.8873 3.5 20C3.5 29.1127 10.8873 36.5 20 36.5C29.1127 36.5 36.5 29.1127 36.5 20C36.5 10.8873 29.1127 3.5 20 3.5ZM0.5 20C0.5 9.23045 9.23045 0.5 20 0.5C30.7696 0.5 39.5 9.23045 39.5 20C39.5 30.7696 30.7696 39.5 20 39.5C9.23045 39.5 0.5 30.7696 0.5 20Z" fill="#FCFCFD"/>
<path d="M16 16C16 17.1046 15.1046 18 14 18C12.8954 18 12 17.1046 12 16C12 14.8954 12.8954 14 14 14C15.1046 14 16 14.8954 16 16Z" fill="#FCFCFD"/>
<path d="M28 16C28 17.1046 27.1046 18 26 18C24.8954 18 24 17.1046 24 16C24 14.8954 24.8954 14 26 14C27.1046 14 28 14.8954 28 16Z" fill="#FCFCFD"/>
<path fill-rule="evenodd" clip-rule="evenodd" d="M13.2558 22.2977C13.9751 21.8867 14.8913 22.1366 15.3024 22.8559C16.2517 24.5172 18.0131 25.6201 20 25.6201C21.9869 25.6201 23.7483 24.5172 24.6976 22.8559C25.1087 22.1366 26.0249 21.8867 26.7442 22.2977C27.4635 22.7087 27.7134 23.625 27.3024 24.3443C25.8517 26.883 23.1279 28.6201 20 28.6201C16.8721 28.6201 14.1483 26.883 12.6976 24.3443C12.2866 23.625 12.5365 22.7087 13.2558 22.2977Z" fill="#FCFCFD"/>
</svg>
