<svg width="50" height="50" viewBox="0 0 72 72" fill="none" xmlns="http://www.w3.org/2000/svg">
<rect width="72" height="72" rx="36" fill="#E3E8C2"/>
<path d="M30 39C30 40.6569 28.6569 42 27 42C25.3431 42 24 40.6569 24 39C24 37.3431 25.3431 36 27 36C28.6569 36 30 37.3431 30 39Z" fill="#529B40"/>
<path d="M48 39C48 40.6569 46.6569 42 45 42C43.3431 42 42 40.6569 42 39C42 37.3431 43.3431 36 45 36C46.6569 36 48 37.3431 48 39Z" fill="#529B40"/>
<path fill-rule="evenodd" clip-rule="evenodd" d="M52 25H20V22H52V25Z" fill="#529B40"/>
<path fill-rule="evenodd" clip-rule="evenodd" d="M18.5 20C18.5 18.067 20.067 16.5 22 16.5H50C51.933 16.5 53.5 18.067 53.5 20V30C53.5 31.933 51.933 33.5 50 33.5H22C20.067 33.5 18.5 31.933 18.5 30V20ZM22 19.5C21.7239 19.5 21.5 19.7239 21.5 20V30C21.5 30.2761 21.7239 30.5 22 30.5H50C50.2761 30.5 50.5 30.2761 50.5 30V20C50.5 19.7239 50.2761 19.5 50 19.5H22Z" fill="#529B40"/>
<path fill-rule="evenodd" clip-rule="evenodd" d="M18.5 32C18.5 31.1716 19.1716 30.5 20 30.5H52C52.8284 30.5 53.5 31.1716 53.5 32V46C53.5 46.8284 52.8284 47.5 52 47.5H20C19.1716 47.5 18.5 46.8284 18.5 46V32ZM21.5 33.5V44.5H50.5V33.5H21.5Z" fill="#529B40"/>
<path d="M18.5 46.5C18.5 45.3954 19.3954 44.5 20.5 44.5H22.5C23.6046 44.5 24.5 45.3954 24.5 46.5V50.5C24.5 51.6046 23.6046 52.5 22.5 52.5H20.5C19.3954 52.5 18.5 51.6046 18.5 50.5V46.5Z" fill="#529B40"/>
<path d="M47.5 46.5C47.5 45.3954 48.3954 44.5 49.5 44.5H51.5C52.6046 44.5 53.5 45.3954 53.5 46.5V50.5C53.5 51.6046 52.6046 52.5 51.5 52.5H49.5C48.3954 52.5 47.5 51.6046 47.5 50.5V46.5Z" fill="#529B40"/>
<path d="M16.5 27C16.5 26.4477 16.9477 26 17.5 26H19.5C20.0523 26 20.5 26.4477 20.5 27V33C20.5 33.5523 20.0523 34 19.5 34H17.5C16.9477 34 16.5 33.5523 16.5 33V27Z" fill="#529B40"/>
<path d="M51.5 27C51.5 26.4477 51.9477 26 52.5 26H54.5C55.0523 26 55.5 26.4477 55.5 27V33C55.5 33.5523 55.0523 34 54.5 34H52.5C51.9477 34 51.5 33.5523 51.5 33V27Z" fill="#529B40"/>
</svg>
