<svg width="65" height="65" viewBox="0 0 72 72" fill="none" xmlns="http://www.w3.org/2000/svg">
<rect width="72" height="72" rx="36" fill="#E3E8C2"/>
<path fill-rule="evenodd" clip-rule="evenodd" d="M35.1745 16.8779C35.6963 16.6291 36.3025 16.6291 36.8243 16.8779C37.3016 17.1055 37.5483 17.4926 37.6441 17.649C37.7453 17.8143 37.8451 18.0167 37.9252 18.1793C37.931 18.191 37.9367 18.2025 37.9422 18.2138L39.5708 21.513L43.2138 22.0455C43.2262 22.0473 43.239 22.0492 43.2519 22.0511C43.4312 22.0772 43.6544 22.1097 43.8428 22.155C44.0212 22.1979 44.4653 22.3132 44.8289 22.697C45.2264 23.1166 45.4134 23.6932 45.3377 24.2662C45.2685 24.7904 44.9766 25.1443 44.8573 25.2837C44.7313 25.431 44.5697 25.5883 44.4398 25.7146C44.4304 25.7237 44.4212 25.7327 44.4122 25.7415L41.7778 28.3074L42.3994 31.9315C42.4015 31.9439 42.4037 31.9566 42.4059 31.9695C42.4367 32.1482 42.4749 32.3705 42.4902 32.5638C42.5047 32.7467 42.5327 33.2049 42.2802 33.6697C42.0043 34.1777 41.5138 34.534 40.9453 34.6394C40.4252 34.7358 39.9981 34.5676 39.8287 34.4973C39.6496 34.423 39.45 34.3179 39.2896 34.2334C39.278 34.2273 39.2666 34.2213 39.2554 34.2154L35.9994 32.5031L32.7433 34.2154C32.7322 34.2213 32.7208 34.2273 32.7092 34.2334C32.5488 34.3179 32.3491 34.423 32.17 34.4973C32.0006 34.5676 31.5735 34.7358 31.0534 34.6394C30.485 34.534 29.9945 34.1777 29.7185 33.6697C29.4661 33.2049 29.494 32.7467 29.5085 32.5638C29.5238 32.3705 29.5621 32.1482 29.5928 31.9695C29.595 31.9566 29.5972 31.9439 29.5993 31.9315L30.2209 28.3074L27.5866 25.7415C27.5775 25.7327 27.5683 25.7238 27.559 25.7146C27.4291 25.5883 27.2674 25.431 27.1414 25.2837C27.0222 25.1443 26.7303 24.7904 26.661 24.2662C26.5854 23.6932 26.7723 23.1166 27.1698 22.697C27.5335 22.3132 27.9775 22.1979 28.1559 22.155C28.3444 22.1097 28.5675 22.0772 28.7469 22.0511C28.7598 22.0492 28.7725 22.0473 28.785 22.0455L32.428 21.513L34.0565 18.2138C34.0621 18.2025 34.0678 18.191 34.0735 18.1793C34.1537 18.0167 34.2534 17.8143 34.3547 17.649C34.4504 17.4926 34.6971 17.1055 35.1745 16.8779ZM35.9994 21.0555L34.9244 23.2333C34.9231 23.2359 34.9212 23.24 34.9186 23.2455C34.8874 23.3119 34.7601 23.5831 34.5517 23.8073C34.383 23.9889 34.1806 24.1361 33.9558 24.2406C33.6783 24.3697 33.381 24.4072 33.3083 24.4164C33.3022 24.4172 33.2977 24.4178 33.2949 24.4182L30.8887 24.7699L32.6281 26.4641C32.6301 26.4661 32.6335 26.4692 32.638 26.4734C32.6915 26.5236 32.9105 26.7287 33.0596 26.9965C33.1804 27.2134 33.2578 27.4517 33.2877 27.6982C33.3246 28.0024 33.2681 28.2971 33.2543 28.3692C33.2532 28.3752 33.2523 28.3797 33.2518 28.3825L32.8416 30.7742L34.9909 29.6439C34.9934 29.6426 34.9974 29.6404 35.0028 29.6374C35.0671 29.602 35.3298 29.4572 35.6305 29.3983C35.8741 29.3505 36.1246 29.3505 36.3682 29.3983C36.6689 29.4572 36.9317 29.602 36.996 29.6374C37.0014 29.6404 37.0053 29.6426 37.0079 29.6439L39.1571 30.7742L38.7469 28.3825C38.7464 28.3797 38.7456 28.3752 38.7444 28.3692C38.7306 28.2971 38.6741 28.0024 38.711 27.6982C38.7409 27.4517 38.8184 27.2134 38.9392 26.9965C39.0883 26.7287 39.3073 26.5236 39.3608 26.4734C39.3653 26.4692 39.3686 26.4661 39.3706 26.4641L41.1101 24.7699L38.7039 24.4182C38.7011 24.4178 38.6965 24.4172 38.6904 24.4164C38.6177 24.4072 38.3205 24.3697 38.043 24.2406C37.8181 24.1361 37.6158 23.9889 37.447 23.8073C37.2387 23.5831 37.1113 23.3119 37.0801 23.2455C37.0775 23.24 37.0756 23.2359 37.0743 23.2333L35.9994 21.0555ZM39.4997 32.8018C39.4997 32.8018 39.4997 32.8026 39.4997 32.8018V32.8018Z" fill="#529B40"/>
<path fill-rule="evenodd" clip-rule="evenodd" d="M25.1745 32.8779C25.6963 32.6291 26.3025 32.6291 26.8243 32.8779C27.3016 33.1055 27.5483 33.4926 27.6441 33.649C27.7453 33.8143 27.8451 34.0167 27.9252 34.1793C27.931 34.191 27.9367 34.2025 27.9422 34.2138L29.5708 37.513L33.2138 38.0455C33.2262 38.0473 33.239 38.0492 33.2519 38.0511C33.4312 38.0772 33.6544 38.1097 33.8428 38.155C34.0212 38.1979 34.4653 38.3132 34.8289 38.697C35.2264 39.1166 35.4134 39.6932 35.3377 40.2662C35.2685 40.7904 34.9766 41.1443 34.8573 41.2837C34.7313 41.431 34.5697 41.5883 34.4398 41.7146C34.4304 41.7237 34.4212 41.7327 34.4122 41.7415L31.7778 44.3074L32.3994 47.9315C32.4015 47.9439 32.4037 47.9566 32.4059 47.9695C32.4367 48.1482 32.4749 48.3705 32.4902 48.5638C32.5047 48.7467 32.5327 49.2049 32.2802 49.6697C32.0043 50.1777 31.5138 50.534 30.9453 50.6394C30.4252 50.7358 29.9981 50.5676 29.8287 50.4973C29.6496 50.423 29.45 50.3179 29.2896 50.2334C29.278 50.2273 29.2666 50.2213 29.2554 50.2154L25.9994 48.5031L22.7433 50.2154C22.7322 50.2213 22.7208 50.2273 22.7092 50.2334C22.5488 50.3179 22.3491 50.423 22.17 50.4973C22.0006 50.5676 21.5735 50.7358 21.0534 50.6394C20.485 50.534 19.9945 50.1777 19.7185 49.6697C19.4661 49.2049 19.494 48.7467 19.5085 48.5638C19.5238 48.3705 19.5621 48.1482 19.5928 47.9695C19.595 47.9566 19.5972 47.9439 19.5993 47.9315L20.2209 44.3074L17.5866 41.7415C17.5775 41.7327 17.5683 41.7238 17.559 41.7146C17.4291 41.5883 17.2674 41.431 17.1414 41.2837C17.0222 41.1443 16.7303 40.7904 16.661 40.2662C16.5854 39.6932 16.7723 39.1166 17.1698 38.697C17.5335 38.3132 17.9775 38.1979 18.1559 38.155C18.3444 38.1097 18.5675 38.0772 18.7469 38.0511C18.7598 38.0492 18.7725 38.0473 18.785 38.0455L22.428 37.513L24.0565 34.2138C24.0621 34.2025 24.0678 34.191 24.0735 34.1793C24.1537 34.0167 24.2534 33.8143 24.3547 33.649C24.4504 33.4926 24.6971 33.1055 25.1745 32.8779ZM25.9994 37.0555L24.9244 39.2333C24.9231 39.2359 24.9212 39.24 24.9186 39.2455C24.8874 39.3119 24.7601 39.5831 24.5517 39.8073C24.383 39.9889 24.1806 40.1361 23.9558 40.2406C23.6783 40.3697 23.381 40.4072 23.3083 40.4164C23.3022 40.4172 23.2977 40.4178 23.2949 40.4182L20.8887 40.7699L22.6281 42.4641C22.6301 42.4661 22.6335 42.4692 22.638 42.4734C22.6915 42.5236 22.9105 42.7287 23.0596 42.9965C23.1804 43.2134 23.2578 43.4517 23.2877 43.6982C23.3246 44.0024 23.2681 44.2971 23.2543 44.3692C23.2532 44.3752 23.2523 44.3797 23.2518 44.3825L22.8416 46.7742L24.9909 45.6439C24.9934 45.6426 24.9974 45.6404 25.0028 45.6374C25.0671 45.602 25.3298 45.4572 25.6305 45.3983C25.8741 45.3505 26.1246 45.3505 26.3682 45.3983C26.6689 45.4572 26.9317 45.602 26.996 45.6374C27.0014 45.6404 27.0053 45.6426 27.0079 45.6439L29.1571 46.7742L28.7469 44.3825C28.7464 44.3797 28.7456 44.3752 28.7444 44.3692C28.7306 44.2971 28.6741 44.0024 28.711 43.6982C28.7409 43.4517 28.8184 43.2134 28.9392 42.9965C29.0883 42.7287 29.3073 42.5236 29.3608 42.4734C29.3653 42.4692 29.3686 42.4661 29.3706 42.4641L31.1101 40.7699L28.7039 40.4182C28.7011 40.4178 28.6965 40.4172 28.6904 40.4164C28.6177 40.4072 28.3205 40.3697 28.043 40.2406C27.8181 40.1361 27.6158 39.9889 27.447 39.8073C27.2387 39.5831 27.1113 39.3119 27.0801 39.2455C27.0775 39.24 27.0756 39.2359 27.0743 39.2333L25.9994 37.0555ZM29.4997 48.8018C29.4997 48.8018 29.4997 48.8026 29.4997 48.8018V48.8018Z" fill="#529B40"/>
<path fill-rule="evenodd" clip-rule="evenodd" d="M45.1745 32.8779C45.6963 32.6291 46.3025 32.6291 46.8243 32.8779C47.3016 33.1055 47.5483 33.4926 47.6441 33.649C47.7453 33.8143 47.8451 34.0167 47.9252 34.1793C47.931 34.191 47.9367 34.2025 47.9422 34.2138L49.5708 37.513L53.2138 38.0455C53.2262 38.0473 53.239 38.0492 53.2519 38.0511C53.4312 38.0772 53.6544 38.1097 53.8428 38.155C54.0212 38.1979 54.4653 38.3132 54.8289 38.697C55.2264 39.1166 55.4134 39.6932 55.3377 40.2662C55.2685 40.7904 54.9766 41.1443 54.8573 41.2837C54.7313 41.431 54.5697 41.5883 54.4398 41.7146C54.4304 41.7237 54.4212 41.7327 54.4122 41.7415L51.7778 44.3074L52.3994 47.9315C52.4015 47.9439 52.4037 47.9566 52.4059 47.9695C52.4367 48.1482 52.4749 48.3705 52.4902 48.5638C52.5047 48.7467 52.5327 49.2049 52.2802 49.6697C52.0043 50.1777 51.5138 50.534 50.9453 50.6394C50.4252 50.7358 49.9981 50.5676 49.8287 50.4973C49.6496 50.423 49.45 50.3179 49.2896 50.2334C49.278 50.2273 49.2666 50.2213 49.2554 50.2154L45.9994 48.5031L42.7433 50.2154C42.7322 50.2213 42.7208 50.2273 42.7092 50.2334C42.5488 50.3179 42.3491 50.423 42.17 50.4973C42.0006 50.5676 41.5735 50.7358 41.0534 50.6394C40.485 50.534 39.9945 50.1777 39.7185 49.6697C39.4661 49.2049 39.494 48.7467 39.5085 48.5638C39.5238 48.3705 39.5621 48.1482 39.5928 47.9695C39.595 47.9566 39.5972 47.9439 39.5993 47.9315L40.2209 44.3074L37.5866 41.7415C37.5775 41.7327 37.5683 41.7238 37.559 41.7146C37.4291 41.5883 37.2674 41.431 37.1414 41.2837C37.0222 41.1443 36.7303 40.7904 36.661 40.2662C36.5854 39.6932 36.7723 39.1166 37.1698 38.697C37.5335 38.3132 37.9775 38.1979 38.1559 38.155C38.3444 38.1097 38.5675 38.0772 38.7469 38.0511C38.7598 38.0492 38.7725 38.0473 38.785 38.0455L42.428 37.513L44.0565 34.2138C44.0621 34.2025 44.0678 34.191 44.0735 34.1793C44.1537 34.0167 44.2534 33.8143 44.3547 33.649C44.4504 33.4926 44.6971 33.1055 45.1745 32.8779ZM45.9994 37.0555L44.9244 39.2333C44.9231 39.2359 44.9212 39.24 44.9186 39.2455C44.8874 39.3119 44.7601 39.5831 44.5517 39.8073C44.383 39.9889 44.1806 40.1361 43.9558 40.2406C43.6783 40.3697 43.381 40.4072 43.3083 40.4164C43.3022 40.4172 43.2977 40.4178 43.2949 40.4182L40.8887 40.7699L42.6281 42.4641C42.6301 42.4661 42.6335 42.4692 42.638 42.4734C42.6915 42.5236 42.9105 42.7287 43.0596 42.9965C43.1804 43.2134 43.2578 43.4517 43.2877 43.6982C43.3246 44.0024 43.2681 44.2971 43.2543 44.3692C43.2532 44.3752 43.2523 44.3797 43.2518 44.3825L42.8416 46.7742L44.9909 45.6439C44.9934 45.6426 44.9974 45.6404 45.0028 45.6374C45.0671 45.602 45.3298 45.4572 45.6305 45.3983C45.8741 45.3505 46.1246 45.3505 46.3682 45.3983C46.6689 45.4572 46.9317 45.602 46.996 45.6374C47.0014 45.6404 47.0053 45.6426 47.0079 45.6439L49.1571 46.7742L48.7469 44.3825C48.7464 44.3797 48.7456 44.3752 48.7444 44.3692C48.7306 44.2971 48.6741 44.0024 48.711 43.6982C48.7409 43.4517 48.8184 43.2134 48.9392 42.9965C49.0883 42.7287 49.3073 42.5236 49.3608 42.4734C49.3653 42.4692 49.3686 42.4661 49.3706 42.4641L51.1101 40.7699L48.7039 40.4182C48.7011 40.4178 48.6965 40.4172 48.6904 40.4164C48.6177 40.4072 48.3205 40.3697 48.043 40.2406C47.8181 40.1361 47.6158 39.9889 47.447 39.8073C47.2387 39.5831 47.1113 39.3119 47.0801 39.2455C47.0775 39.24 47.0756 39.2359 47.0743 39.2333L45.9994 37.0555ZM49.4997 48.8018C49.4997 48.8018 49.4997 48.8026 49.4997 48.8018V48.8018Z" fill="#529B40"/>
</svg>
