<svg width="65" height="65" viewBox="0 0 72 72" fill="none" xmlns="http://www.w3.org/2000/svg">
<rect width="72" height="72" rx="36" fill="#E3E8C2"/>
<path fill-rule="evenodd" clip-rule="evenodd" d="M18.42 20.56C17.9667 20.4278 17.4777 20.5167 17.1 20.8C16.7223 21.0833 16.5 21.5279 16.5 22V46.5C16.5 47.1667 16.94 47.7533 17.58 47.94L29.58 51.44C29.8543 51.52 30.1457 51.52 30.42 51.44L42 48.0625L43.1555 48.3995C42.0376 46.7179 41.0602 44.8734 40.5 43.1919V45.375L31.5 48V26.625L40.5 24V37.7365C41.08 36.1561 42.1339 34.7869 43.5 33.7829V24L52.5 26.625V32.6711C53.6387 33.1284 54.6577 33.8021 55.5 34.638V25.5C55.5 24.8333 55.06 24.2467 54.42 24.06L42.42 20.56C42.1457 20.48 41.8543 20.48 41.58 20.56L30 23.9375L18.42 20.56ZM19.5 24L28.5 26.625V48L19.5 45.375V24Z" fill="#529B40"/>
<path d="M55.5 47.3672C54.6556 48.7615 53.6843 50.093 52.7302 51.1922L53.58 51.44C54.0332 51.5722 54.5223 51.4833 54.9 51.2C55.2777 50.9167 55.5 50.4721 55.5 50V47.3672Z" fill="#529B40"/>
<path fill-rule="evenodd" clip-rule="evenodd" d="M48 33.5C43.7854 33.5 40.5 36.7296 40.5 40.5556C40.5 41.4321 40.8189 42.639 41.4404 44.0422C42.0497 45.4181 42.8972 46.8655 43.8269 48.1863C44.7588 49.5101 45.7424 50.6631 46.6044 51.4665C47.037 51.8698 47.408 52.1558 47.6999 52.3321C47.8498 52.4226 47.948 52.4654 48 52.4853C48.052 52.4654 48.1502 52.4226 48.3001 52.3321C48.592 52.1558 48.963 51.8698 49.3956 51.4665C50.2576 50.6631 51.2412 49.5101 52.1731 48.1863C53.1028 46.8655 53.9503 45.4181 54.5596 44.0422C55.1811 42.639 55.5 41.4321 55.5 40.5556C55.5 36.7296 52.2146 33.5 48 33.5ZM37.5 40.5556C37.5 34.9314 42.2735 30.5 48 30.5C53.7265 30.5 58.5 34.9314 58.5 40.5556C58.5 42.0416 57.9938 43.6965 57.3026 45.2571C56.5993 46.8451 55.6467 48.4634 54.6263 49.9131C53.608 51.3597 52.4916 52.6819 51.4411 53.6611C50.9176 54.1491 50.3793 54.5811 49.8509 54.9002C49.3574 55.1982 48.7074 55.5 48 55.5C47.2926 55.5 46.6426 55.1982 46.1491 54.9002C45.6207 54.5811 45.0824 54.1491 44.5589 53.6611C43.5084 52.6819 42.392 51.3597 41.3737 49.9131C40.3533 48.4634 39.4007 46.8451 38.6974 45.2571C38.0062 43.6965 37.5 42.0416 37.5 40.5556ZM48 38.3889C46.6257 38.3889 45.6429 39.4296 45.6429 40.5556C45.6429 41.6815 46.6257 42.7222 48 42.7222C49.3743 42.7222 50.3571 41.6815 50.3571 40.5556C50.3571 39.4296 49.3743 38.3889 48 38.3889ZM42.6429 40.5556C42.6429 37.6314 45.1138 35.3889 48 35.3889C50.8862 35.3889 53.3571 37.6314 53.3571 40.5556C53.3571 43.4797 50.8862 45.7222 48 45.7222C45.1138 45.7222 42.6429 43.4797 42.6429 40.5556Z" fill="#529B40"/>
</svg>
