<svg width="65" height="65" viewBox="0 0 72 72" fill="none" xmlns="http://www.w3.org/2000/svg">
<rect width="72" height="72" rx="36" fill="#E3E8C2"/>
<path fill-rule="evenodd" clip-rule="evenodd" d="M28.5263 39.75H33.6763C36.1616 39.75 38.1763 41.7647 38.1763 44.25C38.1763 46.7353 36.1616 48.75 33.6763 48.75H25.25C24.6977 48.75 24.25 49.1977 24.25 49.75C24.25 50.3023 24.6977 50.75 25.25 50.75H44V53.25H25.25C23.317 53.25 21.75 51.683 21.75 49.75C21.75 47.817 23.317 46.25 25.25 46.25H33.6763C34.7809 46.25 35.6763 45.3546 35.6763 44.25C35.6763 43.1454 34.7809 42.25 33.6763 42.25H28.5263V39.75Z" fill="#529B40"/>
<path fill-rule="evenodd" clip-rule="evenodd" d="M25 39.25C24.0335 39.25 23.25 40.0335 23.25 41C23.25 41.9665 24.0335 42.75 25 42.75C25.9665 42.75 26.75 41.9665 26.75 41C26.75 40.0335 25.9665 39.25 25 39.25ZM20.75 41C20.75 38.6528 22.6528 36.75 25 36.75C27.3472 36.75 29.25 38.6528 29.25 41C29.25 43.3472 27.3472 45.25 25 45.25C22.6528 45.25 20.75 43.3472 20.75 41Z" fill="#529B40"/>
<path fill-rule="evenodd" clip-rule="evenodd" d="M47 50.25C46.0335 50.25 45.25 51.0335 45.25 52C45.25 52.9665 46.0335 53.75 47 53.75C47.9665 53.75 48.75 52.9665 48.75 52C48.75 51.0335 47.9665 50.25 47 50.25ZM42.75 52C42.75 49.6528 44.6528 47.75 47 47.75C49.3472 47.75 51.25 49.6528 51.25 52C51.25 54.3472 49.3472 56.25 47 56.25C44.6528 56.25 42.75 54.3472 42.75 52Z" fill="#529B40"/>
<path fill-rule="evenodd" clip-rule="evenodd" d="M25 15.5C23.2761 15.5 21.6228 16.1848 20.4038 17.4038C19.1848 18.6227 18.5 20.276 18.5 21.9998C18.5 23.9195 19.554 26.0717 21.0427 28.0985C22.409 29.9586 24.0001 31.5241 25.0001 32.4359C26.0003 31.5244 27.5915 29.9588 28.9577 28.0986C30.4463 26.0718 31.5 23.9196 31.5 21.9998C31.5 20.276 30.8152 18.6227 29.5962 17.4038C28.3772 16.1848 26.7239 15.5 25 15.5ZM18.2825 15.2824C20.0641 13.5009 22.4805 12.5 25 12.5C27.5195 12.5 29.9359 13.5009 31.7175 15.2824C33.4991 17.064 34.5 19.4803 34.5 21.9998C34.5 24.8973 32.9744 27.6976 31.3756 29.8745C29.7456 32.0939 27.8635 33.8994 26.8105 34.8433C26.7813 34.8695 26.751 34.8945 26.7198 34.9183C26.2259 35.2956 25.6216 35.5 25 35.5C24.3785 35.5 23.7741 35.2956 23.2802 34.9183C23.2489 34.8944 23.2185 34.8693 23.1891 34.8429C22.1371 33.8994 20.2551 32.0939 18.6249 29.8745C17.026 27.6978 15.5 24.8974 15.5 21.9998C15.5 19.4803 16.5009 17.064 18.2825 15.2824Z" fill="#529B40"/>
<path fill-rule="evenodd" clip-rule="evenodd" d="M25 21.25C24.3096 21.25 23.75 21.8096 23.75 22.5C23.75 23.1904 24.3096 23.75 25 23.75C25.6904 23.75 26.25 23.1904 26.25 22.5C26.25 21.8096 25.6904 21.25 25 21.25ZM21.25 22.5C21.25 20.4289 22.9289 18.75 25 18.75C27.0711 18.75 28.75 20.4289 28.75 22.5C28.75 24.5711 27.0711 26.25 25 26.25C22.9289 26.25 21.25 24.5711 21.25 22.5Z" fill="#529B40"/>
<path fill-rule="evenodd" clip-rule="evenodd" d="M47 25.5C45.2761 25.5 43.6228 26.1848 42.4038 27.4038C41.1848 28.6227 40.5 30.276 40.5 31.9998C40.5 33.9195 41.554 36.0717 43.0427 38.0985C44.409 39.9586 46.0001 41.5241 47.0001 42.4359C48.0003 41.5244 49.5915 39.9588 50.9577 38.0986C52.4463 36.0718 53.5 33.9196 53.5 31.9998C53.5 30.276 52.8152 28.6227 51.5962 27.4038C50.3772 26.1848 48.7239 25.5 47 25.5ZM40.2825 25.2824C42.0641 23.5009 44.4805 22.5 47 22.5C49.5195 22.5 51.9359 23.5009 53.7175 25.2824C55.4991 27.064 56.5 29.4803 56.5 31.9998C56.5 34.8973 54.9744 37.6976 53.3756 39.8745C51.7456 42.0939 49.8635 43.8994 48.8105 44.8433C48.7813 44.8695 48.751 44.8945 48.7198 44.9183C48.2259 45.2956 47.6216 45.5 47 45.5C46.3785 45.5 45.7741 45.2956 45.2802 44.9183C45.2489 44.8944 45.2185 44.8693 45.1891 44.8429C44.1371 43.8994 42.2551 42.0939 40.6249 39.8745C39.026 37.6978 37.5 34.8974 37.5 31.9998C37.5 29.4803 38.5009 27.064 40.2825 25.2824Z" fill="#529B40"/>
<path fill-rule="evenodd" clip-rule="evenodd" d="M47 31.25C46.3096 31.25 45.75 31.8096 45.75 32.5C45.75 33.1904 46.3096 33.75 47 33.75C47.6904 33.75 48.25 33.1904 48.25 32.5C48.25 31.8096 47.6904 31.25 47 31.25ZM43.25 32.5C43.25 30.4289 44.9289 28.75 47 28.75C49.0711 28.75 50.75 30.4289 50.75 32.5C50.75 34.5711 49.0711 36.25 47 36.25C44.9289 36.25 43.25 34.5711 43.25 32.5Z" fill="#529B40"/>
</svg>
